<?xml version="1.0" encoding="utf-8"?>
<!-- Generator: Adobe Illustrator 19.2.1, SVG Export Plug-In . SVG Version: 6.00 Build 0)  -->
<svg version="1.1" id="Layer_1" xmlns="http://www.w3.org/2000/svg" xmlns:xlink="http://www.w3.org/1999/xlink" x="0px" y="0px"
	 viewBox="0 0 1984.2 2834.6" style="enable-background:new 0 0 1984.2 2834.6;" xml:space="preserve">
<path class="state" id="orinoquia" d="M868.8,1460.3l1.9-4.9l2.5-3.5l-1.1-14.3l-2-1.2l0.7-7.8l1.5-1.6l0.8-2.7l10.9-13.1l13.1-6.5l11.3-2.3
	l6-11.4l1.9-4.1l-1.6-9.3l2.9-17l7.4-2.7l13.9-13.5l0.8-5.3l3.7-5.2l6.5-2.5l3.9-6.5l7.2-0.8l8.2,4.5l-0.3,7.2l-3.5,1.9l0.4,4.5
	l3.5,4.1l9.3-0.4l4.1-6.5l8.4-4.5l8.8-1.1l4.1-6.1l5.3-2.7l11-21.1l0.3-12.3l3.1-1.2l3.9-17.7l2.7-0.8v-3.1l-3.9-2.5l-1.1-9.7
	l-3.1-1.5l0.7-4.4l4.4-1.1l6.9-4.4l2.5-8.2l4.8,0.4l1.6,7.6l11.7,9.4l3.1-0.3l7.6-6.5l-0.3-3.1l-3.9-3.9l0.4-4.4l1.2-2l12.1-15.9
	l20-10.5l12.9-16.3l1.5-7.6l7.4-3.5l2-6.5l6.5-14.2l1.2-8.4l1.5-3.1l6.1-7.9l1.6-8.2l1.6-5.6l2.9-1.6l6.8-8.8l-1-13.6l-5.6-10.3
	l2-17.8l7.5-15.7l11-6.5l7.8-12l1.5-7.8l-0.3-21.2l3.7-2l-1.2-2.5l-6.8-1.5l-2-5.7l-2.9-0.7l0.7-6.5l4.9-0.8l0.3-6.1l-3.1-2.5
	l-10.9-0.4l-1.9-2l-6.1-0.4l-3.1,3.3l-8.2-1.2l-0.3-5.6l2.5-1.6l-0.4-6l-3.5-3.9l-2.5-10.2l-13.5-8.2l-8-10.9l-0.4-6.8l-5.7-1.6
	l-8.4-10.5V913l-3.5-8.7l13.3,1.5l0.4-0.8h5.7l2-1.5l5.3-0.1l4.1,3.1l0.7,5.4l1.4,0.5l0.4,7.8l-0.3,0.7l0.1,3.8l17.3,30.1l6,3.3
	l8.4,0.8l4.4,0.1l1.2-2h2.2l1.4,1.8h2l2-1.4h4.4l6.8-6l2.3-0.5l3.1,2.6l1.4-1.8h1.4l2,3.9l5.9,0.3l0.1,1.4l1.1,0.1l2-5.7h2.3
	l2.3,2.2l3.9-1.5l1.1,5.2h2.2l1.8-2.5l8,0.7l1.4,1.6h1.5l1.5-2.7l1.4,0.3l-0.1,5.2h1.4l5.6-3.5l0.4-2.3l2.3-0.1l3.8,4.6l7.2-0.1
	l1.6-1.4h4.4l1.6-2h1.9l2.5,3.5l1.8-0.1l1.8-1.8h7.9l1.6-1.4l3.1,0.5l5,6.9h7.1l1.2,1.4l4.9-0.3l7.4-6.4l7.1-2.9l4.9-4.5l1.8,2.2
	h1.4l1.6-4.4h1.8l1.1,2.2h1.8l1.5-1.6h6.7l2.5-1.4l3.9,0.1l2.5-3h2l5.9,5.6h8.8l1.6-1.6h2.7l2.2,1.9l0.1,3.5l5.4,5.2l8.8-0.5l3.8,3
	l3.7-0.8l8.4,6l2.7,3h3.9l10.9-6.8l4.2,0.3l4.9-1.1l6.5-0.1l102.2,127.4l5.4,0.1l3.9-5.6l3.7,2.5l1.5,4.9l2.7,0.7l1.6,3.5h3.4
	l2.5-2.5l4.5-0.3l5.2-8.3h4.2l3.1-8h1.1l2-3l6.5,0.3l1.8,2.3l3.4,1.1l4.2-2.5h2.7l7.4,5.9l1.8-1.8l2-0.3l1.4,1.8h4.9l2.7-2.5
	l4.1,0.3l2.5,3.4l1.1-2.7l8.4,0.4l4.9,7.1l4.9-1.6l5.2,1.1l6.5-6.1h4.5l2,3.7l2,1l4.1-6.5l2.5,1l9.3-1.8l0.3-3h1.6l2.7,3.7l6.8-0.3
	l2.2,1.6l8.4,0.3l6-5.7l2.5,0.4l2.3-1.8l4.9,1.1l6.5-4.4h3.5l6.1,3.7l8.4,0.3l1.6,2.5h2l6.7-6.8h1.6l6.1-6.8l2.7,0.4l2.9-3.5l5-0.1
	l1.9-1.6h2.5l3.7,4.4l1.2-2.2l2.7-0.1l1.2,2.5l1.9,0.3l3.4-2.9h4.1l1.4,1.6l5.7-0.3l3.1,2.3l4.8-0.4l5.2,7.2l3.8-2.9l1.9,0.1
	l-0.1,5.2l2.9,0.8l0.7,4.1l-3.7,1.1l-1.5,3l2,3l-0.3,7.5l6.7,3.5l2.9,4.9l-1.2,3.9l-1.5,2.2l-7.9,6.9l-1.5,4.2l-4.1,1.6l-4.4,3.7
	l0.5,1.5l-0.7,1.1l-1.9-0.7l-4.6,6.5l0.3,7.8l-2.6,2.3v1.9l2.3,1.9l-1,2.9l-3.3,1.6l-0.3,6.1l3,2.3v1.8l-1.8,0.7l1.9,2.6l-1.6,2.7
	l4.9,3.7l-0.3,3.5l-3.8,2.3v5.9l-11.8,8l-2.7,4.6l-6.3,1.6l-2.5,3.8l-5.6,1.4l-0.1,2.5l-3.1,2.7l0.1,3.8l-1.8,0.4l-0.4,4.2l2.7,1.5
	v2.6l1.6,1.2l-0.1,4.8l-1.5,1l-0.4,4.9l-0.8,2.9l4.2,4.4v2.7l-1.2,1.9l3.4,1l-0.3,3.3l-2.5,1.9v3l1.6,2l-0.7,9.1l-5.3,5l0.3,7.1
	l2.7,10.8v4.9l-4.1,9.9l-1.5,9.5l-1.9,1.8l-0.3,5.9l1.4,1.8l0.1,5.2l10.8,7.8l1.2,7.1l4.1,4.5l0,0l-3.4,0.5l-13.7,14l-3,12.9
	l-7.9,11.6l-5.7,0.5l-3.5,1.6l-7.9-1.9l-10.8-6l-45.9,0.3l-30.2,6.8l-15.4,8.2l-11,1.6l-6.8,5.2l-3.5-0.3l-0.5-5.7l2.7-1.1
	l16.2-15.4l6.3-3.3l8.8-12.9l3.5-12.9l5.2-1.9l9.9-14.6l3-2.2v-6l-8.6-4.6l-7.6,0.8l-3.5,8.6l-4.4,10.6l-13.7,8.8l-11.8,4.4l-7.8,5
	l-14.2,7.1l-20,0.3l-24.1-6.8h-23.8l-28,7.9l-9.1,1l-20.6,11.6l-10.2,12.1l-10.8,16.2l-3,1.6l-6.8,6.8l-11.8,18.9l-1.6,7.4l-4.6,7.1
	l-8.6,10.8l-1.9,8.6l-13.5,19.7l-21.9,23.6l-12.7,7.6l-20.8,5.7l-17.6,7.9l-13.5,9.7l-12.1-0.3l-4.6,3.3l-14.6,0.5l-9.7-6l-7.4,0.8
	l-1.4,1.9l-15.9,0.5l-20.8,6.8l-21.6-0.8l-11.3-3.5l-9.9-1.1l-5.2-3.3h-12.7l-8.8,3.5h-13.5l-25.6,12.1l-2.2,4.6l-10.5,0.5
	l-13.5-2.3l-0.8-5.7l1.9-8.3h2.5v-3l-1.4-2.5l-9.4-0.8l-7.1,6.3l-7.1,17.3l-11,18.2l-17,9.9l-18.4,0.3l-16.5-1.1l-13.6-5.7l-3.3-3.3
	l-12.5-2.3l-6.5-5.7l-7.6-1.9l-4.6-12.4l-1-13.1l-7.6-13.1l-17.7-15.9l-2.9-9.8l-22.9-18.8l-12.4-5.7l-13.3,3.7l-6.4,8.7l-1.8-8.7
	l2.3-9.1l4.1-2.3L868.8,1460.3z"/>
<path class="state" id="andina" d="M369.2,1938.2l3.5-1.2l8.6-6.3l1.2-7.1l5.9-5.6l6.5-2.7l6.5,1l16.6-9.1l1.8-6.3l7.1-7.8l4.5,2.3l7.8-5l6.3-9.4
	l1.8-0.5l4.6-8.2l7.4-5l-2-8.3l0.3-6.5l3.8-3l1.2,3.5l4.5,1.2l1.5-4.8l3.5-1l3.3,1.8l1.5,2.7l2.3,1l3.8-3.3l8.3-4.6l4.1,0.5l3.3-2
	l3.8-0.3l16.3-11.3l16.9-6.3l6.5,0.3l1.5-2.3h4.8l-0.3,1.5l11.6-0.3l8-5.3l2.3-5.3h4.8v-4.5l-3.5-1.8v-8.8l3.3-1l1.5,5l6.5,2
	l0.3,1.5l3.5,1.2l0.5-3.3l3.5-0.3l2.7-5.6h1.8l1.5,5l3.8,1.2l2.7,2.7v-9.8l-3.8-3.3l-1-5.9l5.9-1.5l1.2,3l4.6-2.7l5.3,2l2.3-4.5
	l-4.8-0.5l-5.3-4.6l0.5-3.3l2-2.7l4.2-10.1l4.8-1.5l4.8,4.5h9.5l0.3,4.8l12.1,7.1l5.9-0.5l2.7-2l1.2-6.5l9.5-16.3l5.3-1.5l0.5-15.1
	l6.8-5.9l16.6-2.3l4.1-8.8l-3.8-3.3l3.3-8.6l12.3-1.4l4.5-3.8l5.9-12.4l7.6-6l8.3-6.8l11.4-17.3l7.4-5l13.2-2.5l8.3-14.8l1.8-25.7
	l5.6-10.9l5.4-8.3l10.5-0.1l9.1,6.1l1.5,11.7l4.9,5.4l8.3-0.8l22.2,2.6l7.9,6l7.6,4.4l-0.4,14.3l-1.8,12.1l11.6,4.5l0.4,7.8
	l10.9,6.3l4.9-0.8l6.4-1.9l-0.3-3l-1.9-1.4l0.3-9.4l2.5-12.7l4.4-3.5l-0.5-4.1l-5.4-6.3v-10.8l-3.3-2.7l-6-13.5v-7.1l-3.3-6.8
	l0.3-6.5l-3.5-8.6l-2.7-3l1.1-6.3l4.4-1.1l1.6-3l0.4-4.9l-0.4-12l-1.2-8.6l1.1-1.6l0.3-9.4l-2.2-1.9l-1.6-6.8l-3.8-1.4l-5.2-7.4
	l1.1-9.7l-6.4-6.1l-1.6-8.4l2.3-9.4l3.8-1.9l1.1-12.3l2-5l2.5-3.5l-1.1-14.3l-2-1.2l0.7-7.8l1.5-1.6l0.8-2.7l10.9-13.1l13.1-6.5
	l11.3-2.3l6-11.4l1.9-4.1l-1.6-9.3l2.9-17l7.4-2.7l13.9-13.5l0.8-5.3l3.7-5.2l6.5-2.5l3.9-6.5l7.2-0.8l8.2,4.5l-0.3,7.2l-3.5,1.9
	l0.4,4.5l3.5,4.1l9.3-0.4l4.1-6.5l8.4-4.5l8.8-1.1l4.1-6.1l5.3-2.7l11-21.1l0.3-12.3l3.1-1.2l3.9-17.7l2.7-0.8v-3.1l-3.9-2.5
	l-1.1-9.7l-3.1-1.5l0.7-4.4l4.4-1.1l6.9-4.4l2.5-8.2l4.8,0.4l1.6,7.6l11.7,9.4l3.1-0.3l7.6-6.5l-0.3-3.1l-3.9-3.9l0.4-4.4l1.2-2
	l12.1-15.9l20-10.5l12.9-16.3l1.5-7.6l7.4-3.5l2-6.5l6.5-14.2l1.2-8.4l1.5-3.1l6.1-7.9l1.6-8.2l1.6-5.6l2.9-1.6l6.8-8.8l-1-13.6
	l-5.6-10.3l2-17.8l7.5-15.7l11-6.5l7.8-12l1.5-7.8l-0.3-21.2l3.7-2l-1.2-2.5l-6.8-1.5l-2-5.7l-2.9-0.7l0.7-6.5l4.9-0.8l0.3-6.1
	l-3.1-2.5l-10.9-0.4l-1.9-2l-6.1-0.4l-3.1,3.3l-8.2-1.2l-0.3-5.6l2.5-1.6l-0.4-6l-3.5-3.9l-2.5-10.2l-13.5-8.2l-8-10.9l-0.4-6.8
	l-5.7-1.6l-8.4-10.5v-3.9l-3.4-8.8l-4.1-1.4l-1.8-2.5V893l-3.9-3.1l-0.1-6.5l-1.8-0.3v-1.9l1.8-1.6l-0.1-4.4l-1.2-0.8v-3.5l-1.8-1.5
	l-0.3-16.9l2-1.8l-0.3-8.2l3-3V832l-1.4-3.5l-2-1.6l0.7-4.1l3.3-0.5l-0.1-1.2l1-0.8l0.3-1.6l3-2.5l0.5-5.6l5.6,1.4l2.6,3.8l0.1-1
	l1.1-0.5l0.4-5.6l-0.5-5.6l-3.3-3.5l2-2.3l-1.8-9.8l0.5-1.9l-2.5-6.5l-1.1-0.8l0.4-4.9l0.8-1.1l0.5-3.4l-2.2-1v-5.7l-1.2,0.1
	l-1.4-1.4l0.1-1.6l-1.2-1.1l-1.2,1l-24.2-27.9l-2.2-2.6l-1.6-1.1l-1.6-1.9l-2-0.3l-17.2-68.6l-1.1-2.3l-0.8-2.2l-2.6,1.2l-1.8-2.2
	l0.3-1.2l-1.8-1.6l-1.1,2.6l-7.5-1.1l-3.3,5.4h-1.5l-2.2,1.8l-2.9-1.4l0.3-2l-5.9-5.9l3.1-6.4l-1.1-3.4l-1.9-1.2l-1.5-0.4l1.1-1.2
	v-3.5l-1.4-1l0.3-1.8l-1.6-1.1l0.3-1.1l-1.2-0.5l-1.4,0.7l-1.5,0.3l-5.9,3.7l-0.7,2.7l-1.1,0.4l-0.7,1.2l-5.9-0.3l-1,1.9l-1.5,1.1
	l-4.1,2.6l-1.6,1.9l-4.4-0.3l-5.2,3.5l-7.1-2.2l-6.8-0.8v-3.3l4.4-4.5l6.9-15.5l1.8-5.2l1.4-1.5l1.1-3.1l6-4.4l1.1-5.9l1.8-1.2
	l0.3-3.4l8.2-8.2l5.3-0.4l1.2-5.7l-0.4-2.6l2.6-5l1.1-4.5l4.4-6.3l1.9-2.2l2.7-7.9l6-7.2l-0.5-1.4l-4.6-3.1l-1.1-1.2l1.5-1.4
	l-0.7-1.2l-0.7-4.1l1.4-4.9l2.7-5.3l1.1-7.2l5.7-9.4l-0.4-7.1l1.1-2.5l0.4-5l1.2-1.1l-0.4-12.1l0.3-9.8l2-4.5l-0.4-9.1l6.5-6
	l0.4-6.9l2.2-4.4l3.8-2.5l1.9-4.1l4.5-3l6.3-10.6l0.8-6.7l3.8-3.7l1.1-6.5l5.7-10.5l3,0.3l7.1-7.1l8.2-13.3l3.8-4.9l-1.4-4.4
	l7.1-5.7l1.1,1.4l14.4-5.3l1.6,1.1l10.5,0.4l4.8-8.7l-18.7-3.7l-1.6-2.5l-5.3-0.4l-10.3,2l-8.6,8.3l-3.7,1.6l-8.4,11.4l-1.1,11.4
	l-9.1,10.8l-9.7,7.6l-1.9,10.2l-1-0.3l-10.5,11.7l-5.3,1.8l-5.7,8l-1.6,15.5l-20.1,16.6l-6.4,11.2l-9.1,5.4l-4.1,1.6l-3.1,6.8
	l-8-0.7l-3.1,3.7l-0.7,8.8l3.1,1.4l-0.3,14.4l7.8,25.3l0.7,22.2l3,2.7l-1.6,8.7l-5,3.9l-1.1,7.8l-3.9,0.7l-4.4,4.1l-4.6,0.4
	l-10.8,6.8l-5.4,14.4l0.3,6.7l2.7,2.3l-1.6,7.1l-1.6,0.3l-3,8.2l-5,1.6l-5.7,9.8l-9.1,5.4l-6.7,11.4l1,24.2l-5.4,7.8l0.3,17
	l-6.8,7.8l-8.4,0.3l-3.9,4.8l-7.4,0.7l-1.4,4.4l-4.4,2L867,732l-6.4-0.3l-0.7-4.1l-2-0.7v-15.1l2.3-2l0.4-7.4l2.5-0.7l-0.7-9.8
	l-3-1.6l-2-7.5l-5.4-5.4l-9.3,1.9l-4.6,10.1l-6,3.4l-7.4,10.8l-0.3,15.9l-4.4,2l-0.3,3.4l4.4,2.3l-3.9,4.6l-12.8,1l-6,8.4l-0.3,11
	l-3.1,1.1l-1.8,3.4v5.3l-6.8,5v13.1l-8,1.1l-9.8,10.3l-9.8,0.7L757,797l-6,0.4l-5.3,5l-1,11.2l2.5,1.6l0.3,13.2l6.1,1.1l5.3,5.7
	l-1.1,8.4l-1.5,0.8l-7.4,27.9l-6.1,0.7l-9.5,8.7l-1.6,6.7l-7.4,2.3l-1.4,3.4l-2-1.4l0.3-6l4.4-6.4l-0.3-10.1l4.4-2l3.4-9.7l-0.4-11
	l-1.6-1.6l-0.7-6l-4.8-5.7l-6.4-0.3l-1.8-2.5l-6.1,0.7l-2.5,2l-11.7,1.4l-2.5,4.1l-15,0.4l-8.4-2.2l-2-2.3l-10.5-0.4l-8.4,4.1
	l-13.3-0.7l-6-4.1l-1-4.4l-2.5,1.4v4.6l-8.8,0.7l-11.4,6.8l-6.4-0.3v-1.6l2.7-0.4l-0.4-8.8l-7.5-11.6l-3.8-11.6l-11.7-8.8h-10.5
	l-1-2.3H562l-13.7,8.2l-1.6,2.7l-4.1,1.1l-3,3.1l-5.4-1l-1.4-2.7h-3.1l-7.1,9.3l-0.4,9.4l-10.8,12.4l-12.4,8.7l-10.1,2.7l-4.1,1.6
	l-4.1,8.2l-0.3,15.2l5.4,9.1l1.4,13.2l11.8,20.8l8.2,8.7v3.4l-3,3.1l-7.6-0.3l-8.4-3.1l-15.8-10.5l-1.8-3.1l-3.9-0.5l-4.2,9.1
	l-5.7-2l-4.5-5.7l-7.1,0.5l0.8,6.8l3.1,2.3l-0.5,6.5l-2.9,1.1l-1.2,5l6.8,7.5l4.5,22.7l-1.1,9.5l7.1,11.6l9.5-2.6l2.9-7.6l3.5-0.5
	l5.9,3.8l-1.4,6l-3.9,2.7l-0.3,6.7l-5.9,4.5h-2.7l-3.4,2.5l-0.7,8l1.5,1.4l2.5,5.4l3.9,13.3l-5.3,1.4l-0.3,9.9l-3.5,5.7l0.4,6.3
	l3.4,1.1l10.2,11.6l-0.7,3.1l-1.8,1.8v8l3.1,7.6l4.6,1.5l5.6,8.7l-1.1,9.4l-2.5,1.1l-0.3,9.4l6.4,7.6l1.4,7.4l8,0.7l0.7,6l-4.6,5.6
	l-2.9,13.2l-4.5,3.5v5.3l3.9,4.9l2.7-0.3l2-4.9l2.7-0.7l4.2,1.8l-1.5,15l-8.8,13.2h-5.6l-5.2,2.9l-6.9,1.8l-0.3,1.5l4.5,2.5
	l2.2,11.8l4.6,1.1l9.1,8.4l-0.3,3.9l-8.4,8.3l-11.2,6.9l-7.4,8.7l-0.7,14.3l-3.5,1.4v4.6l4.2,12.5c0,0,3.9,3.5,3.9,4.5
	s-3.1,7.8-3.1,7.8l-6.9,5.6l1,4.9l7.4,3.9l2.9,4.5l4.9,2l-3.5,6.7l-9.8,1l-9.4,2.7l-3.1,3.9l-4.6,0.7v4.2l4.6,3.9l-3.9,17.2
	l-3.9,6.4l-0.4,8.7l-6.9,7.8l-4.2,1.8v2.9l10.2,3.8l1.4,5.2l7.1,2.5l-1,3.9l-2.9,0.3l-1.8,5.2l-8,1l-1.4-2l-13.6,1.1l-1.1,4.6
	l3.4,2.9l-3.4,8.4l0.3,3.5l3.4,2.7l-0.7,4.6l-4.6,3.9l1,2.7l6.7,6.3l-0.4,3.1l-6.7,4.9l-10.2,0.3l-3.9,3.5v6.3l4.5,6.3l-0.4,17.8
	l-2.5,0.4l-9.4,5.9l-1.8,3.5l-3.5,1l0.7,3.5l4.6,2l2.5,10.8c0,0,1,13.6,1,14.7s-2,11.8-2,11.8l-3.9,3.5l-1.4,7.4l-8.3,7.4l-2.7,0.3
	l-2,3.8l2.5,8.4l3.5,2.5l-0.7,7.4h-1.1l-6.3,6l-9.8,1.1l-1.4-1l-3.8,2.9l1.8,5.9l5.2,4.9l-1.4,6.9l-3.1,0.4l-3.5,2.9l0.3,4.5
	l-6.7-0.4l-2.9-2.5l-14.7,2.2l-5.9,9.5l-1.4,13.2l-4.5,12.5l-8.7,10.8l-5.2-0.4l-5.3,6.9l-0.3,7.6l5.2,7.8l-0.4,6l-5.2,5.3
	c0,0-3.9-1.4-4.2-2.2s-0.3-1.1-0.3-1.1l-11.8-6.9l-26.5-1.1l-2.2-2.7l-2.9,2.5l-0.3,3.5l1.4,2.2l-5.3,4.2l-1.8,8.8l-4.5,2.2
	l-0.3,1.1l10.5,1l-0.1,4.2l13.6-0.3l11.8,8.3l-0.7,6.3l-1.4,1.8l-1.8,7.4l-4.9,3.5h-2.2l1,2.7l2.5,0.4v7.8l-10.1,11.8l-2.5,1
	l0.4,2.9l2.7,1.8l-0.4,8.3l-5.2,5.3l-3.9-1.1l-0.4-1.8h-3.8l-6,4.9l-2,11.8l-6.8,1.8l-2.9-0.4l-3.1-2.2l-2.7,0.3l-2,2.7l-6.7,2.7
	l-9.4,7.4l-12.4,4.1l-1.5,3.5l1.2,1.4l-1.8,2.2l1.2,3l1.9-2.3l3,1.1l5-4.4l3.9,0.3l1.8-1.1l3.1,0.1l0.1,2l2.5,1l-1.9,1.4l1.4,1.6
	v2.5l1.9,3.4l2.3,1l0.3,2l-2.5,0.7l-0.7,2.9l-1.4,0.8l4.5,2.3l0.3,2l5.3,1.9l1.6,1.9l2.5,1.2l-0.4,5.4h-0.9l2.3,2.9h2.3l1,1.2
	l3.1,0.3l1-2.2l3,0.3l3.4,3.3l-0.1,1.8l3.1,2.6l5.7,0.1l3,2.5l-0.3,1l4.5,1.4l1.5,3.4l4.5,1l4.6,0.8l4.8,0.5l3.1,0.5l0.7-0.1
	l4.1-1.4l0.5-0.3l1.4-1.9l3-0.5l2.3-0.8l1,0.3l3.4-0.1l3-1.5h0.7l4.4,0.7l1.5,3.3l3.5,0.8l-1.9,6.3l-1.9,0.5l-1.1,4.4l1.4,0.3l1.8,5
	h3.1l7.9,4.2l3.3,4.6l5.9-0.3l1.2-1.2l5.4,0.7l1.1,5.3l-1.6,4.9l-1.9,0.7l-2.2,5.6c0,0,0.4,4.9,0.4,6.1s-1.4,1.1-1.4,1.1l1.1,10.1
	l-1,1.1l0.3,2.5l1.4-1.2l6.9-2.9l1.6-1.8l3.1-0.4l1.6,0.3l-0.8,1.8l3.8,4.4l2.5,0.5l3.5,1.1l4.1,1.1l3.4,1.2L369.2,1938.2z"/>
<path class="state" id="pacifica" d="M413.8,780.3l-1.1,4.6l-4.5,2.6l-1.1,5.3l-5.7,5.4v6l3.7,5.3l0.5,6.3l-2.2,0.1l-0.5,7.1l-9.7,11.6l-0.8,5.3
	l3.9,2.9l0.5,18.9l9.9,10.8v3.9l3.7,10.2l4.2,1.1l0.3,8.2l7.6,9.4v12.8l1.8,1.4l9.7,16.7l6.8,2.3l1.6,2.6l2.7,0.7l6.8,7.5l4.5,22.7
	l-1.1,9.5l7.1,11.6l9.5-2.6l2.9-7.6l3.5-0.5l5.9,3.8l-1.4,6l-3.9,2.7l-0.3,6.7l-5.9,4.5H470l-3.4,2.5l-0.7,8l1.5,1.4l2.5,5.4
	l3.9,13.3l-5.3,1.4l-0.3,9.9l-3.5,5.7l0.4,6.3l3.4,1.1l10.2,11.6l-0.7,3.1l-1.8,1.8v8l3.1,7.6l4.6,1.5l5.6,8.7l-1.1,9.4l-2.5,1.1
	l-0.3,9.4l6.4,7.6l1.4,7.4l8,0.7l0.7,6l-4.6,5.6l-2.9,13.2l-4.5,3.5v5.3l3.9,4.9l2.7-0.3l2-4.9l2.7-0.7l4.2,1.8l-1.5,15l-8.8,13.2
	h-5.6l-5.2,2.9l-6.9,1.8l-0.3,1.5l4.5,2.5l2.2,11.8l4.6,1.1l9.1,8.4l-0.3,3.9l-8.4,8.3l-11.2,6.9l-7.4,8.7l-0.7,14.3l-3.5,1.4v4.6
	l4.2,12.5c0,0,3.9,3.5,3.9,4.5s-3.1,7.8-3.1,7.8l-6.9,5.6l1,4.9l7.4,3.9l2.9,4.5l4.9,2l-3.5,6.7l-9.8,1l-9.4,2.7l-3.1,3.9l-4.6,0.7
	v4.2l4.6,3.9l-3.9,17.2l-3.9,6.4l-0.4,8.7l-6.9,7.8l-4.2,1.8v2.9l10.2,3.8l1.4,5.2l7.1,2.5l-1,3.9l-2.9,0.3l-1.8,5.2l-8,1l-1.4-2
	l-13.6,1.1l-1.1,4.6l3.4,2.9l-3.4,8.4l0.3,3.5l3.4,2.7l-0.7,4.6l-4.6,3.9l1,2.7l6.7,6.3l-0.4,3.1l-6.7,4.9l-10.2,0.3l-3.9,3.5v6.3
	l4.5,6.3l-0.4,17.8l-2.5,0.4l-9.4,5.9l-1.8,3.5l-3.5,1l0.7,3.5l4.6,2l2.5,10.8c0,0,1,13.6,1,14.7s-2,11.8-2,11.8l-3.9,3.5l-1.4,7.4
	l-8.3,7.4l-2.7,0.3l-2,3.8l2.5,8.4l3.5,2.5l-0.7,7.4h-1.1l-6.3,6l-9.8,1.1l-1.4-1l-3.8,2.9l1.8,5.9l5.2,4.9l-1.4,6.9l-3.1,0.4
	l-3.5,2.9l0.3,4.5l-6.7-0.4l-2.9-2.5l-14.7,2.2l-5.9,9.5l-1.4,13.2l-4.5,12.5l-8.7,10.8l-5.2-0.4l-5.3,6.9l-0.3,7.6l5.2,7.8l-0.4,6
	l-5.2,5.3c0,0-3.9-1.4-4.2-2.2s-0.3-1.1-0.3-1.1l-11.8-6.9l-26.5-1.1l-2.2-2.7l-2.9,2.5l-0.3,3.5l1.4,2.2l-5.3,4.2l-1.8,8.8
	l-4.5,2.2l-0.3,1.1l10.5,1l-0.1,4.2l13.6-0.3l11.8,8.3l-0.7,6.3l-1.4,1.8l-1.8,7.4l-4.9,3.5h-2.2l1,2.7l2.5,0.4v7.8l-10.1,11.8
	l-2.5,1l0.4,2.9l2.7,1.8l-0.4,8.3l-5.2,5.3l-3.9-1.1l-0.4-1.8h-3.7l-6,4.9l-2,11.8l-6.8,1.8l-2.9-0.4l-3.1-2.2l-2.7,0.3l-2,2.7
	l-6.7,2.7l-9.4,7.4l-12.4,4.1l-1.6,3.5l-3.3,1.5l-2-1.1l-3.8-0.1v-1.8l-2.5-0.1l0.1-2.5l-2.9-1.1l-3.8-4.4l-6.7-0.1l-1.4,1.6
	l-4.1-1.9l-2.5-3.7l0.4-3.8l-1.6-2.3l-3.3-0.1l-2-1.5v-1.8l-4.1-1l-3-3.5l0.4-2.7l-1.6-1.8l-1.6-0.1l-3.7-3.3l-0.7-1.5l-1.9-0.8
	v-1.1l2.5-1.8l-2.7,0.4l-0.8-1.1l-1.5,1.1l-1.9-0.4l-1.6-2.2l-2.5-0.4l-0.3-2.3l1.6-0.7v-2.3l-2.3-1.5l-0.7-2.7l-1.5-1.4h-1.5
	l-1.2,1.5h-1.8l-2.2-2.5l-2.5-0.5l-3.8-2.7l-3-1.6l-1.8-2l-2.5-0.1l-1-1.5l-1.6-0.7v-1.8h2.9l0.5-1.6l1.8-0.3v-0.8l-3.5-0.3l1.2-1
	v-1.6l2.5-2.6v-1.4l3.9-3.3l0.5-3.5l3.8-4.2l1.1-0.4l0.7-2.6l3.3-1.1l1.8-2.2l2-0.4l1.9-1.8l0.3-2.5l3.5-0.3l2.7-2.3l4.1-2.3
	l2.5-0.1l-0.4,1l-3.3,0.5l-1.2,1.9l4.5,0.1l1.6,1.5l4.4-0.3l0.3-2.2l2.6-1.6l0.8,1.1l-1.8,1.1l-0.5,3.4l1.1,1v2l0.5-2.2l1.8-1
	l0.5,1.6h3.7l0.4,1.1l1.5-1.4l0.3-1.5l1.4,0.1l1.1,2.6l1.2-1.2l0.1-1.1l6.3-0.5l-1,0.7l0.1,2l1.4,0.8l0.3,1.1h1.9l-2.2,1.2v2.9
	l0.8-1.8h2.7l1.8-1.4l0.1-3.4l1.4-2l2.3-0.5l0.3-1.9l-1.1-1l-0.3-1.8l1.6-1l1.2-3l-3.3-1.4l-0.1-2.2l-4.6-0.3l-1.1-5.2l1-3.1
	l2.6-1.2l-1.1-1.1l-0.1-1.8l1.8-0.5l-0.3-3.5l-3.1-3.1l-2,0.1l-0.7-0.8v3l-2,0.5l-1,1.6l-1.8-0.1l-0.4-3.9l1.4-0.1v-5l-1.4-0.7v-1
	l1.8-0.4l0.1-3.7l-1.9-0.8l-0.1-4.6l-1.1-0.8v-1l2,0.4l0.5-1.6l-1.2-0.7v-2.2l-1.6,1.4h-0.8l-0.4,1.5l-1.6-1.2l1-1.5l-1-2.5l1.8-0.8
	v-3.5l1.5-0.3v-2l1.8-1.8l2-0.8l-1.2-1.1l-0.1-3.7l2.7-3.1v-3.7l2-1.4l2,0.1l-1.1-1.8l1.2-2.5l1.6-0.1l0.8-1.5h-1.2l-0.1-2.2
	l1.5-0.5l0.4-3.7l2-1.4l0.3,3.9l2.5,2.6l0.1,2.9l1.9,1.1l2.5-1.1v-1.8l-1,1.5h-1.8v-1.8l-2-1.9l0.5-2.2l-1.5-0.4l-0.4-1.4l1.5-1
	l0.8,1l1.5-0.7l0.1-2.7l3.1,0.4l0.5,1.2l3.3,0.1l0.4-1.1l1.9-0.3l1.5-4.2l1-0.5v-2.2l-1-0.4l0.1-3.5l3.4,0.3l1.9,1l-0.4,3.4l1.4,3.5
	l1.2-1.4l2.5-0.3l-0.3-0.8l-3.1-0.7l0.3-0.8l1.5-0.3l0.4-2.7l-0.4-1.1l-1-1.8l0.1-3.5l3.4-0.5l0.3-1.1l-2.2-2.2l1.8-0.8l0.8-3.3
	l1.8-0.3l2.5-2.6l2-0.4l0.7-1l-3.5,1l-1.2,1.9l-3,1.4v1.8l-2.5-0.1l-1.2,1l1.2,1.4l-0.4,0.8l1.8,0.4l-0.3,1.5h-1.2l-2.5,1.9v3
	l-1.8,0.1l-1.2-1l-2.5,1.6l-0.7,4.2l1.1,1l0.1,1.1l-2.9,1.4l-1.1,3.7h-2.5l-3-2l-1.8,0.1l-1.9,2.9h-1.4l-0.3-1.9l3.8-3.7l3.8-4.8
	l3-0.4l1.2-1.6l1-2.9l1.5-0.8l0.4-2.2l1.9-0.7l2.5,0.3l1-1.2h-2.8v-3h2.9l0.1-2.7l1.9-1.5l2,0.4l1.8-1.9l2.7-1.9l0.3-0.8h2.9
	l0.3-1.4l1.2-0.1v3.8l1.6,1.2l1.1-1.4h1.2l-1.4-1.5v-2.5l3.8,0.4l0.7-1.4l3.8-0.1l0.1-1.4h1.2v2.9l1,1.8l-1.8,1.9l-2.9-1.6l-1.1,1.1
	l-2.5,0.3l3.9,0.7l0.4,2l2.5-1.5l2.2-1.2l1.8,1.2l-2.6,0.5l-0.3,2.2l0.8,0.8l-1.5,0.8l-1.9-1.4v1l-2,1.8l-0.3-1.6v-1.6l-2.5-0.7
	l-0.8-1.8l-1.1,0.3l-1.9,1.4v2.3l1,0.4l2.2-2.5l2.6,2l-1.8,2H223l-0.8,1.4l-1.1-1.9l-1.8,1l-0.1,2h-1.6l-0.3,1.8l-3.3,1.5l1,1.9
	l1.9-2l1.1,1.2l-0.7,2v2.2l-2.9-0.3l2.5,2.2l1.6-0.3l-0.5-1.9l1.9-0.4l0.3-2l-1.5-1.2l2-1.5l1,1l1.9-1.4l-2.3-0.7l-0.8-1.4l1.9-0.3
	l1.8-1.9l2.5,0.8l2.7-1l1-2.5l4.1,1.4l-0.4,1.9l-1.6,0.1l-2.7,1l-1.4-0.1v1.6l-0.3,1.8l-2.2-1.8l-0.1,1.8l2.7,0.8l-0.4,1.9l-1.9,1.2
	l1.1,1.4l0.3,1.6l1,0.8l-0.3-4.6l1.2-0.7l0.4-3.8l1.6-0.3l0.1-1.1l5.7-0.1v0.8l-1.6,1.1l1.1,4.4v-3.1l4.2-0.7l0.4-0.8l-2-0.7
	l1.8-1.8l-1.9-1l-2.2,0.4l-1.2-1.2l1.5-2.6l-2-1.6l1.2-1.5l4.5-1.5l-4.8-1.2l0.1-2.7l1.4-0.3l-2.5-0.8l-0.5-1.4l-1.4,0.1v-1l7.8,0.4
	l-0.1-1.4l1.8-0.1l0.7-1.2h2.7l0.5-1.4l1.1-0.3v3.9l1,0.3v2.7l-1.1,0.1v2.2l-1.9,0.8v4.4l0.7-3.1l1.6-0.8l0.3-2.6l2-0.8l-0.1,6.3
	l2.3,0.8l0.8,2.3l2.6-1.1l-1.9-1.4v-1.6l-1.2-0.5l0.1-4.9l1.2-0.1v1.5l2.7,0.4l0.1,4.4h3.1l-0.8-2.9l1.9-1.6l2.3-0.1l1.2-2.7
	l0.7,1.5l-1,5.2l-2.2,0.8l-0.8,2.5l-1.9-1.6l-1.2,0.3l1.6,1.6l-2,1v2l-1.8-2.3l-2,1.2l1.5,0.3v1.6l1.6,0.1v1l0.5,1.5l1.9-1.8
	l4.2,0.3l2.7,2.7l-1.5-3l-3.8-1.4l-1.5-1.8l2.6-0.7l1.9-3.4l2.2-0.1l0.3-5.7l1.2-0.7l1.8-1.6l1.1,0.4l-0.1,2l-1,1l3.1,2l0.1-2.3
	l-1.4-0.4v-2.5l1.8-0.3l0.7,3h1l0.4,1.1l3.4,1l-0.1,2.9l1.6-2.5l-1.8-1.5l0.5-0.7l1.8-0.1l2,2.5l-0.1,1.5l1.8-1l-1.6-1.6l-1.5-1.9
	l0.7-1.1l2.2,0.8l1.2-1l-1-0.7h-2.7l-1.1-1.1l1.4-1.4l3.3,0.3l3.3,2.5l-1.6-2.9l-2.6-0.8l2-1.9l0.8-1.9l2.2,1l0.3,2.3l2,0.1l0.7,1.2
	l3.8,0.4l1.6,2.2v2.6l1.1-1.4l1.6,0.3l1.2-1.6l-2.6,0.1l-0.1-2.5l-2.9-0.3l-3.4-0.7l-1.6-1.6l-0.8,0.1l0.3-1.6l4.4,0.4l0.4,2.2
	l1,0.3l0.1-2.3l1.6-0.5l1,3.8l1.1-2l1.1-0.1l1.5-1.2l3-0.1l-4.1-0.3l-2.2,1.5l-0.5-1.6l-1.6-1.1l1.2-1.6l2.6-0.3l0.3-1.6l3-0.3
	l1.2-1.8l-0.3-0.7l-2.3,2.2l-1-2.6l-3.3,0.3l-1.9,2l-0.4-1.5l3.9-1.9l3.7,1.1l1.9-1.6l5-0.3l-1.6-0.5v-1.1l2.9-0.3l1.6,2.7l0.5-2
	l-1.9-1.4h-9.1v-1.2l2.6-1.2l2.6-3l1.1,1.9l0.1,1.2h1l1.8-2.5l-1.8,0.7l-1.4-1.8l1.6-0.4l0.3-2.9l2.3-1.1l1.5,0.3l0.4,1h2l1.1-2.5
	l3-0.1v-1.8l-3.5,1.1l-1.6,1.6l-2.5-1.2l-0.1-1.5l-1.8-0.8l-0.1-1.6l3.1-0.1l-1.6-1.4v-2.6h1.4l0.5-1.4l0.7,0.1v2.9l1.1-1.8h2.3
	l-0.3-3l-1.8-1.5l-1.2-0.4v-2h4.1l-1-1.1h-2.6l-1.1-1.4l-2.5,1.1l-1.1,3.3l-1.4-0.1l-0.3-1.8l3.8-3.3l-1-2.3l1.6-0.8l0.1-3.1l2-1.8
	l2.5,0.3l3.5-6l2.7-1.5l0.3-3l3.5-1.6l2.9-4.9l-0.1-2.9l3.5-3.1h1.9l0.3,1.9l1.4,0.4v1.9l-3.8,2.2v1.8l1.1,0.7v2.5l1.6,1.4l-0.1,2
	l-2.9,1.4l-0.7,4.8l-2.6,2.2l-4.2-0.5l-1.8,2l-1.9-1.2l-2,1.6l-3,0.3l-0.4-1l-1.2,1.2l2.9,2.2l0.1-1.2l2.6-0.3l1.2-1.2l2.3,0.8
	l2.9-0.7l-1-1h4.4l2-1.8l1.9,0.4l0.1,2.7l1.1-1l-0.1-2.5l-2.2-1.2v-4.2l3.5-1.5v-2.7l-1.5-1l1.4-2.9h-1.5l-1.2-1.2l2.6-1l1.4-3.7
	h1.8v1.9l1.4,0.8v3.3l-3.5,1.4l1.6,0.3v1.6l1.4,0.8l0.5,2.3l2.6,0.7l-0.8-1.9l-1.6-0.7l-1-2.3l1.1-1.5l1.2-1.2l-0.3-3.4l-1.2-0.5
	l2-1.6l-2.9-2l0.1-1.8l3.1-0.1l0.7-2.5h2.2l3-2.3l2.3,3.1l-0.1,2.2l2.9-0.1l-1.9-1.8l-0.4-3.7l1.1-4.4h-1.1l-2.5,3.1l-5.4,2
	l-1.6,3.8l-2.7-0.4l-0.3-1.5l-5.9-0.4l-0.8,1.8l-0.8,0.3v-4.4l4.1-2.3l3.4-5.2l2.7-1.5l1.1,2.5l1.2-1.2l3.9,0.1l1.6,2l2.3,0.3
	l-1.4-1.4l-5-2.6l-2,0.5l-1.8-2.2l1.4-1.6l2.6,0.4l1.6-1.6l1-2.2h1.4l0.1,2.9l1.5,0.5l1.9,3v3h1.1l-0.3-5.4l-3-2l0.1-2.2l2.6-0.5
	v-4.8l2.2-3l0.8-1.4l1.1-0.3l0.4-2.3h0.7l0.3,6l-1.5,0.8l0.3,2.7l1.5,0.8l-1.2-2.6l3.8-0.8l-0.3-1.6h-1.2l-0.3-1.2l2.3-3.8l1-0.3
	v-1.1l-2.6-1.8h-2.7l-0.3-1.1l1.2-1l0.3-1.8l4.4-1.1l-0.1-1.6h1.4l1,1.6l1.9,0.3v5.3l-1.9,1.8l0.1,1.4l1.1,1l0.7-3.5l2.2-1.2v-1.5
	l-1.2-0.3l0.5-2.6l1.9-0.7l-0.4-0.8l-2.5,0.5l-1.2-1.9l3.5-0.3l0.5-1.9l-2.2,1.1l-3.5-0.5l-0.1,1.2l-1.1-1l2.6-1.9l0.7-3.3l1.5,1.1
	l0.3,1.6l3.8,0.4l3.5,3.1l0.1,2.6h1.2l0.7-2.7l-4.6-3.4l-3.8-1v-1.5l1.2-0.3l1.1-2l4.1,0.1l0.4,1.4l1.8-0.3l-1.4-1.5l2.5-2.5l2-1.8
	l0.1-2.3l2.9-0.4l-2.3-0.8v-2.9l1.9-0.4l-3.8-0.3v-2.2l1.2-0.4V1438l1.4-0.4l0.1,1.6l3.1,0.7l0.3,2.2l2.5,0.8l-0.3,1.5h-4.2
	l-1.1,3.9l1.9,1.1l-0.1,3.1l0.4,1.5l2-0.3l1,1.1l2-1.1l-0.4-2.9l-1.6,2.2l-2-0.3v-4.1l-1.8-1.4l0.7-2.3l5.2-0.1l1.2,2.7h0.8l-0.5-3
	l1.8-1l-1.5-3.8l-1.8,3.9h-0.8v-2.5l-2.2-0.3v-2l-1.9-1.1v-1.2l6.7,0.3l-1.2-1.4l-1.5-1l0.3-1.6l-1.9,1.9h-2.7l-0.3-4.2h1.5l0.3-1.6
	l1.9,0.1l1.4,3.1l1.9-0.8l3,0.4v-1.5h-4.2l-0.8-1.2l2.5-1.6l2.9,0.3l1.2,1l1.2-1.2l-3.4-1.4v-1.2l1.8-0.1l1.6-2.6l0.3,2.5l0.8-2.3
	h2.9l-1.4-1.4l2.3-0.5l2,0.5l0.3-1.1l-2.5-0.7l0.1-1.1h3.5l0.5-1.1h-3.7l-2.5,1.4l-2,0.1v-1.1l2.2-0.5l0.3-1.5l3.4,0.3l2.5-1.5
	l-8.7,0.4l-0.3-2.6h-3.4l-3,2.7l0.8,1.1l2.3-2.6h1.8l-0.4,3.1l1.6,0.8l-1.1,1.5v1.2l-4.4-0.3l-2.3,3l-4.6,1.5l-0.3,2.7l-1.1-1.9H380
	l-1.9,1.8H377l-0.3-1.4l-2.7-0.3l-1.6-1.5v-1.4l-1.6-0.8v-1.4l1.4-0.1l1-1.1l1.8-0.3l0.1-2.2h-1.4v-1.6l-1.8,1.8l-2.5-0.4l0.3-1.4
	h-1.4l0.1-2.2h2.2v-2l1.6,0.1l-0.1-1l-2.3-0.3l-0.4-1.6h2.3l0.5,0.8l0.8-0.3l-1.1-3l2.9-0.1l1.2-1.6l3-0.4l0.8,1.9H378l-0.7,1.5
	l-3,1.1h2.3v1.8l1.4-2h2.3l0.5-1.2l1.1-0.1l0.5-1.2h1.2l1.5,4.8v-3l1.2-0.4v-1.1l-1.4-0.1l-0.5-1.2h-2l-0.1-1.1l-1.8-0.1l2.6-0.3
	l0.5-1.4h1.1v-2.5l2.7-1.9l-1.2-0.1l-0.1-2.2l3.3-0.1l1.6-1.1h-6.1l-0.4-1.6h-2.2l-0.1,1.6l-1.8-1.6v-3l-0.8-0.5l-0.1-2l-2.3-1
	l-2.2,1.1h2.9l-1,1.8h1.6l-0.3,2l-2.3,0.3l-1.4,1.4h-3.1l1.5,0.8v1.4l-3.1,0.8l-1.2,10.6l-3.9,4.2l-0.3,2.3h-2.3v-1.4l-1.2-0.3
	l-0.4-5l-1.4-3v2.5l-2.7,0.8l-0.1-2.7l-3.8-1.8l-0.1-2.5l-2.9-1.6v-2.7h1.1l0.7,1.5l5,0.1l0.4,1.5h0.7l0.1-2.5l3.1-0.4l2.6-3
	l-3.5,1.9l-0.7,0.8l-5.2,0.4v-1.4l-2-1.5l-1.2,0.1v-1l2.5-2.5l-0.5-2.7l-2.3-1.2l-0.5,2l1.9,0.7l-1,1.6l-1.6-0.3l-1.9,1.9l0.3,2.6
	l-1.8-1.4l-1.2-4.4l-3.1-3l-1-0.1v-1.9l2,0.3l0.5-1.9h1.9l1.4-2.5h1.6l0.4,2l2.2,2v1.4l1-0.1v-2.6l-2-1.2v-1.1l3-0.1l-0.3-0.8h-3.8
	v-1.1l3-2.7l-1.1-0.4l-3.8,4.1h-2.7l-1,1.2l-2.7,0.1l-1,1.8l0.1-7.9l5.9-0.4l1-1.9h2.3v-2.5h-1.2l-1.8,1.6l-3.1,0.3l-0.4-1.6
	l-0.7,2.7l-3.4,0.7l-0.5-2.6l1.6-0.5l0.3-7.8l2.3-1.1l0.3-1.6h1.1v1.8l1.9,1.4l0.1,1.2l-3.5,0.4v1h4.1l0.5,1.4l1.6-1.4h1.2v1.2h5
	v-1.1h-2.6l-1.5-1.5v-1.6l4.4-1.1v-1.5h1.8l-0.4-1.1h-3l-1.6,2.6l-3.3,1.4l0.1-0.7l1.8-1.4l-0.5-2.5l3.8-1.1l-0.1-2.2l2.3-2.3v-2
	l3.3-3.4l0.1,2.3h1.9l0.8-2.9l-1.1-0.7l3.7-3.3l3.7-0.3l-1.9-0.8l-0.7-3.1l0.1-9.7l2.7-1.6l0.1-2.5l-1.5-1v-3l3-1.6v-1l-1.6-0.3
	l-0.3-9.8h1.8l1-1.2l-1.5-1.5l0.5-1h2.3v-1h-2.2l-1.9,1.1v-9.4l3-0.5l2,1.6l2,1.1l0.3,3.5l1.1-1.2l0.3-2.7l-7.1-4.9l1.2-0.7v-2.5
	h-2.3l-0.8-1l0.3-1.8l1.2-0.3l0.5-3l-3.4,2.3h-1.2l0.3,1.4H363v-9.4l1.2-1l0.3,1.8l1.6,2.5l-1-2.7l0.7-2.3l-1-1.6v-2.6l-1.1,0.8
	l-0.3,2.6l-1.8-1.1v-5l-2.3-1.4v-4.1l-1.5-0.5l-0.1-15.4l-1-1.1l-0.3-7.2h1.2l1-3.5h1.1l0.1-2l1.6-0.1l1,3l0.5-5.2l2.9-2.5v-1.6
	l-4.1,2.2l0.7,0.8l-1.8,2.7l-4.4,0.7l0.7-2.6l1.5-0.1l-1.8-2.2l0.1-10.3l1.4-1.4v2.7l1.6,1.5v-2l-1-1l0.1-1.8l1.1-1.5l-0.5-2.2
	l-2.2-2.6h-3l-0.8-1.2l1.8-0.7l0.1-1.9l-1.6-3l-1.6-0.4v-3.3l2-0.7v-2l-1.6-0.7l-0.5-1.9l1.8-0.3v-2.6h-1.2v-1.5l-2.9-0.3l-3.4-4.2
	l-1.4-1.4h-0.8v1.4l-3,0.1l-1,2.9l-1.1-1.6l-0.1-1.1h-5.3l-0.5-1.4l1.6-1.1l1.4-4.2l1.6-0.5v-6.4l2.6-3.1v-1.1h2l1.2,1.4h1.8
	l0.7-1.1l3.5-1.8v-1l2.9-0.5l1.1-1.1l3.3-0.1l0.1,1.2l-0.7,1l1.9,1v1.2h2l0.3-1.2l4.2-1.6v-3.5l2.3-1.8l-0.1-1.5h3.1l1.9-1.4
	l1.1-5.7l2.7-1.1l0.3-2l1.8-1.2v-2.6l1-0.5l0.1-5.7l-1,3.8l-1.4-1.8l-0.3-1.6l-3.4-3.7l-0.4-3.1l-1.9-1l-1.6-9.1l-2.7-3.1l-0.4-5
	l-0.7-0.7v-3.8l3.7,0.1v-1l-1.5-0.5l-0.1-4.1l-2-5.9l-1.1,0.1l1.4,3.3l0.4,5.6l-1.6,0.1l-0.8-4.5l-3.5-4.6l-3.7-2l-0.7-2.5l-3.9-4.5
	l-1.8-1.2l-1.1-5.2l-1.6-1.6l-0.1-4.2l1.6-0.8l-0.1-11.3l1-0.3l1,4.5l3.5,0.1l2.5,3.8l2.6,0.3l0.5,1.2h1.5l-1.2-3l1.5-2.6h1.1
	l-0.3-9.1l-1.8-3h-3.1l-1.1-3H355l-0.8,1.6v-1.9l5.2-1.1l1.5,0.8h1.6v-2.7l-2.5-1.6l-0.3-1.5h1.8l1-3.8l1.1-0.1l0.4-2.5l-1.2-0.7
	l-0.1-2.2l2.6-1.9l1.2-4.9h1.2v-2.9l-3.4-2.5l-3.3-0.3l-1.9-1.2h1.9l-0.3-2.6l-1.4-1.5h-2l-1.9-1.8l1.8-1.4l-2.7-0.5v-1.4l3-0.8v-1
	l-1.4-0.3l-1.1-3.8l-1.8-0.3l-1.8,1.6l0.1-2.6l-6.1-0.1l-1.9,1.6v3.4l1.6,0.4l-2.9,1.8H341l-0.7,1.6h-1l-0.7-1.6l-0.8-1.2l1.8-0.3
	l-0.5-2.6l-1.4-0.5l0.1-1.4l1.9-0.4l-0.7-2.3l-2.6-1.2l-0.4-4.1l-4.2-7.9l-6.5-7.2h-2l-4.1-2.5l-0.7-1.5h-2.3l-0.3,3.9l-1.4,0.4v2.6
	l-1.5-1.1l-0.1-1.4l-1.6-1.4l1.9-1l0.1-2l-1.8-1.2v-4.2l1.6-0.7V971l-1.2-0.7v-1.2l2.5-0.3l1.2-2.2l1.9,0.8l-0.7-1.6l1.5,0.1
	l0.3-3.8l-1.5-0.8l0.3-3.5l-4.1-3l1.2-2.3l-2.9-0.1l-1.9-2.7l-4.9-3.8h-2.6l-1.5-5.9l-6.5-2.6l-2.9-5.3l-4.4-1.1l-0.1-3l-2.3-1.6
	l8.4-27.9l0.8-6.8l4.5-2.9l1.2,1l1.9,0.4l1.4-1.8l4.8-0.4l3.4-6.5L307,877l-3.5-10.8l-0.7-8.4l1.9-5.6l2.5-1.8l7.8,4.6l4.8,8.4
	l4.4,14.4l4.6,4.9l3.1-0.1l2.5-3.4l1.2-4.1l2.5-2.2l1.9,0.3l3.8-5.2l0.7-4.2l1.5-1.6h1.2l2.7-2l1-5.2l2.9-3l5.7-0.5l2.5-1.1l3.3,1
	l2.9-1.1l0.3-3.5l-1.5-5l-2-1.9l-2-4.8l1.1-2.5V830l3.3-4.5l1.6,0.4l3.7-0.7l7.1-1.6l4.1-0.4l1.9,0.4l3.8-1V820l-1.6-0.5l-0.3-1.4
	l0.1-1.9l-1.9-3.8l-3.3-1.4v-1.6l-1.6-0.8l-1.4-2.9l1.6-3.1l0.4-3.8l-2.3,0.6l-0.8-1.6l0.8-2.9l-1-2.3l-1.2-0.4l1.1-1.2l-0.7-4.1
	l-3-3.7l-1.6,0.1l-3-2l-1-3v-2.9l-2.9-1.6l0.4-1.6l-3.1-6.3l-0.8-3.5l1.1-3.4l-5.2-10.2l-4.1-3.9l-4.4,0.3l-1-1l1.1-2.6l-0.8-2.5
	l-2.5-1.1l1.6-2.2l1.6-5.4l2.3-1.6l-0.1-1.6l3.3-6.4l3.1-1.9h1.2l-0.3-2.9l1.2-4.9l0.5,5.6l1.4,0.5l0.4,2.5l3,3.9l2.5,0.4l3.8,5.3
	l1.8,5.6l3,2.9v2.3l-1.6,1v2.3l3.5,1.2l0.3,1.8l4.9,3.5l5.4,1l3.9,3.8l4.9,3.5l3.9,10.6l4.8,3.7l3.7,7.1L413.8,780.3z"/>
<path class="state" id="caribe" d="M507.8,932.5V929l-8.2-8.7l-11.8-20.8l-1.4-13.2l-5.4-9.1l0.3-15.2l4.1-8.2l4.1-1.6l10.1-2.7l12.4-8.7
	l10.8-12.4l0.4-9.4l7.1-9.3h3.1l1.4,2.7l5.4,1l3-3.1l4.1-1.1l1.6-2.7l13.7-8.2h6.7l1,2.3h10.5l11.7,8.8l3.8,11.6l7.5,11.6l0.4,8.8
	l-2.7,0.4v1.6l6.4,0.3l11.4-6.8l8.8-0.7v-4.6l2.5-1.4l1,4.4l6,4.1l13.3,0.7l8.4-4.1l10.5,0.4l2,2.3l8.4,2.2l15-0.4l2.5-4.1l11.7-1.4
	l2.5-2l6.1-0.7l1.8,2.5l6.4,0.3l4.8,5.7l0.7,6l1.6,1.6l0.4,11l-3.4,9.7l-4.4,2l0.3,10.1l-4.4,6.4l-0.3,6l2,1.4l1.4-3.4l7.4-2.3
	l1.6-6.7l9.5-8.7l6.1-0.7l7.4-27.9l1.1-0.3l1.1-8.4l-5.3-5.7l-6.1-1.1l-0.3-13.2l-2.5-1.6l1-11.2l5.3-5l6-0.4l4.8-4.8l9.8-0.7
	l9.8-10.3l8-1.1v-13.1l6.8-5v-5.3l1.8-3.4l3.1-1.1l0.3-11l6-8.4l12.8-1l3.9-4.6l-4.4-2.3l0.3-3.4l4.4-2l0.3-15.9l7.4-10.8l6-3.4
	l4.6-10.1l9.3-1.9l5.4,5.4l2,7.5l3,1.6l0.7,9.8l-2.5,0.7l-0.4,7.4l-2.3,2v14.9l2,0.7l0.7,4.1l6.4,0.3l1.6-7.4l4.4-2l1.4-4.4l7.4-0.7
	l3.9-4.8l8.4-0.3l6.8-7.8l-0.3-17l5.4-7.8l-1-24.2l6.7-11.4l9.1-5.4l5.7-9.8l5-1.6l3-8.2l1.6-0.3l1.6-7.1l-2.7-2.3l-0.3-6.7
	l5.4-14.4l10.8-6.8l4.6-0.4l4.4-4.1l3.9-0.7l1.1-7.8l5-3.9l1.6-8.7l-3-2.7l-0.7-22.2l-7.8-25.3l0.3-14.4l-3.1-1.4l0.7-8.8l3.1-3.7
	l8,0.7l3.1-6.8l4.1-1.6l9.1-5.4l6.4-11.2l20.1-16.6l1.6-15.5l5.7-8l5.3-1.8l10.5-11.7l1,0.3l1.9-10.2l9.7-7.6l9.1-10.8l1.1-11.4
	l8.4-11.4l3.7-1.6l8.6-8.3l10.3-2l5.3,0.4l1.6,2.5l18.6,3.7l36.1-66.2l33.4-8.2l15.5-5.4l35.9-10.8l-0.7-2.5l6.3-3.1l2.5-0.8
	l-0.1-2.2l2.2-1.8l0.8-1.4l-1.1-1.2l-2.7,1.9l-2.2-0.7l-1.6-1.1l0.4-1.6l2.2,0.7l1.6-1.2l0.1,1.4h3.7l0.7,1.5l1.4-0.8l1.4-1.5
	l-0.1-2.2l4.4-3.9l6.1-2.2l2.5-3l6.4-1.5l1.6-3.5l1.6-1.2l0.1-3.7l-1.8-6.7l-4.6-6.7l-7.1-11.4l-3.9-10.6l-7.4-5.2l-1.9-2l-5.9-0.5
	l-6.5-4.1l-6.5-0.5l-11.4-6.4l-8.2-1.6l-5,1l-4.8-1.8l-0.8-1.2h-5.3l0,0l-3.5,1.2l-1,1.2l-1.6,0.3l-1.8,2.9l-1.1,0.3v1.4h2.6
	l0.5,1.8l1.4-0.3l-1-2.9h2.6l1.6-3.3h1l-1.5,3.4h0.8l2-1.4h2.2l0.3-1.5l1.5,1l-3,2l1,1.2l3,0.1l1.8-1.2l-1.8,2.6l-3.1-0.4l-1.8-0.8
	v2h-3.7l-0.4,1.2l4.2,2l-2.7,1h-1.4v-1.4l-2.9,0.1l-0.1-2.5l-1.2-1.9l-1.4,1.1l-1.8,0.1l-1.8,1.8h1.8v1.4l1.2,0.4l0.4,3l-3,0.3
	l-1.6,3l-3.3,0.5l-1.5,1.8l-4.1-0.1v-1.8l-1.5-0.7v-2.3l2.7-1.4l2.2-3.1l-1.2-1l-3.5,3.3h-4.5l-4.4,6l-6.4,4.1l-1.8,2.9l1.9,1.1
	v-1.1l2.9-0.4l3.9,0.3l0.3,1.6l4.2,3l-3-0.1v1.6l2.3,1.6l2,0.3l-2.6,0.4v1.1l1.8,1.8l-2.6,0.4l-5.2,0.1l-2.3,2.2l0.3,3.4l-3.5,0.1
	l-1.5,1.8l-0.4-2.2l-4.1,0.4l2.6-1.8l-1.1-2l-1.4-0.7l-1.6-1.4l0.3-1.4l3-1.6l0.3-1.8l1.8-0.7v-3.9h-4.4l-7.4,3l-13.2-0.1l-1.6-1.6
	l-2,2h-1.6l-2.6,3.7l1.6,0.5l4.1-0.3v13.1l1,0.3l0.7,2.3l-3.3,7.6l-3.8,5.4l-4.4,11.6l-5.4,6.4v2l1.5,1l-1.9,0.7l-1.2-2.5l-2.2,0.3
	l-6.1,5.2l-8.8,3.8l-10.1,5.3l-7.6,1.4h-4.6l3.5,0.7l-1.4,1.8l-1.8,0.3l-1.4,2.9h-1.8l2.7-4.5l-3.9,3h-5.4l-6.5,4.5l-8.7,2.5
	l-4.4,0.1l-5.6,2l-6.5,5.6l-3.1,1.6l-10.3,12l-6.4,2l-11.6,7.4l-2.2,0.5l-6.4,8.4v0.1l-4.4,2.2l3.7-0.8l-0.5,1.2l-1.1,0.7v2l1.8,1.2
	l-2.7,1.1v-1.5l-2.3-0.7l0.4-2.3l-4.9,0.7l0.1,2.2l-3.1,2.7h-2.6l-1.4,2l1.1,1l-11.3,9.1l-12.8,4.4l-21.1,0.4l-5.9,1.5l-2.9-1.2
	l-2-1.1l-4.4-1l-2.5,1.9l-12.7-0.3l-3.9-1.8l-3,1.8l-4.2,0.3l-6.5-3l-5.7-1.1l-2.3-3.4l-5.9-1.1l-1.9-2.5l-4.5-1.4h-2.7l-1-1.5h-3.3
	l-0.2,1.4l-1.6-1.8l-3.5-0.1l2.3,1.4l-0.3,1.9h-2.3l-1.1-1.5l-1.9-0.3l1.8,2v1.1h-4.1l0.3-4.8l-1.5,3l-1.6,1l-0.4,1.5l-0.8-2.7
	l-2.3,0.1l-0.3,2l1.8,0.8v2.5l-2.9,1l-1.2-3.8l-1.4,1.4l-1.6,0.3v2.3l-2,2h1.1l1.6,1.4l-2.9,1.5h-1.8v2l-1.1,0.1l-0.1,2.6l-1.8,0.5
	l-0.1,1.2l2,1.1l-0.3,1.1l-1.6,0.7l0.1,2.2l1.4,1.5l0.1,7.9l1.1,1l0.3,6l1.5,0.7l-2.5,1.8l-1.2,2.9l-7.6,5l-3,1.5l-6.1,0.7l-6.5,1.1
	h-4.4l-11.6-2.5l-15.7-4.2l-13.3-5.4l-12.5-5.7l-8.4-1.1l-2-1.2l-0.8-1.8v2.5l2.5,1.6l-1,1l-0.5,0.5l-2.2-1.5l-0.1,2.3l1.5,0.4
	l-0.4,2.7l1.1,1.6l1.4,0.1v2.3l-3,1.1v-2.6h-2.6l2.3-1.9l-1.8-1.8l-0.4-1.4l-1,2.2l-1.8,0.3l-3,3.9l-2.5,0.1l-0.7,3.5l-6.9,4.5
	l-0.8,3.1h-4.1l-3.7,2.7l0.1,3.5l-1.8,4.8l-6.1,1.4l-3.3,4.1l-6.1,1.1l-1.5,4.2h-3.4l-0.8,1.1l-0.7,0.4h-2v-2h-1.4l-1.1,2.9v2.2
	l-2.9,5.7l-0.7,4.6l-7.8,1.5l-3.8,2.6l-4.1,0.4l-5.4,6.1l-3.5,1.8l-1.4,5.2l-5.3,0.3l-3.4,3v1.1l3.5,0.1l2.2,1.5l-2.9,1v1.2l1.4,0.3
	v2.5l2.5,1.8v1.1h-1.5v1.1l-2,0.7l2.6,0.7l-1.1,3l1.1,2.3l1.9,0.1l-1.8,2.3l-3.1,0.3l-2.2-1.4l2.5-3.5h-1.2l0.1-2.6l-1,0.3l-1.1,2.5
	l-5,2.9l-0.5,3.4l-1.4,0.3v1.4h4.2l1,2.2l1.2-1.5l1.8,1.1l-1.4,1.8l0.7,3l1.1,0.4l-0.8,6.9l-2.7,1.6l-1.2,1.6h-3.1l-1.2,1.6l-1.6-1
	l-0.1-4.9l-1.2,2v2.7l-1.9,2.3h-1.2l-1.9,1.1l1.6,0.4l-0.4,2.5l1,1.6l0.4,2.5l-2.3,1.1l-1.8,2.7l-3.4,2.3l-3.4,1.1l-2.5,2.2l0.7,1.8
	l1.2-0.3l1.8,0.7l1-1.8l3-0.3l0.3-2.6l5.4-5.2h2.2l1.4-4.2h3.5l2.6-3.4l2.2,0.5l-0.7,2.2l1.2,8.6h1.6l0.5,1l-2.9,2.3l-2-1.6l-1,1.9
	l-3.5,4.1l-2-2.3l-2,1.4l2.7,0.7l-1,5.9l2.7,2.2l2.7-0.8v2.5l2.7,2.2l1.1,1.9h1.4v2.6l-0.7,1.6l-2.3-0.3l0.3-2.6l-1.8-0.1l-0.3-3
	h-2.9l-2.6-3.5v1.9l-1.8,0.3v3l3-1.4l1.6,0.7l-0.4,1.5l-1.6,2l-2.6,1.4l0.4,3l1.6,1.2l0.3-2.6l1.1-1.6l2.5-1.9l1.5,0.3l0.1,2.6
	l-2.2,1.2l-2.3,5.6h-1.8l-1.9-2.7l-0.5,1.4l2.5,3h-2l-0.7,3.4l2,1.6l-1.8,1.1l-1,2.5l-3.1,2.6v1h1.2l0.4,3.1l-1.4,0.8l-0.1,6.3
	l-2.5,2l0.1,3.8l-5.2,3.1l-2.3,2l-1.6,3.7l2-1.8h6.3l1.8,2.6l1.5,0.3l1.6-1.5l1.8,3l0.4,2.5l2.9,1.5v3.8l1.8,0.7l0.1,8.4l-3,5.6
	l-1.6,5.9l-2.3,3l-3.1,5.2l-4.6,1.8l-1,1.2h-2.3l-0.5-1.1l-4.5-0.3l-1-1.8h-2.2l-0.3,0.8h-1.8l-1.1,1.5l-2.6,0.7l-0.3,1.8l-2.1-0.5
	l-0.3-0.5l-1.6-0.1l0.4-1.4l-0.5,0.3l-2.3,0.1l-0.7,1l-0.5-0.1l0.3-1.1l1.9-0.8l0.7-1.8l2.5,1.1l-0.1,1.2l1.1-0.3l0.4-1.8l-0.8-1.6
	l-3.3-0.3l-2,0.8L580,606l-2,0.8l-2.6-1.1l-0.8-2.2l-1.8-0.1l-3.5,2.2l-1.4,3.4l1.2,1l0.3,2.2l-2,1.1l-5.6,2.2l-3,2.2l-3.7,0.8
	l-1.1-0.4l-2.3,0.8l-0.7,2.3l-4.2,3.3l-1.2-0.1v0.8l1.2,1.1l-0.4,1.4l2.2,0.3l-2.2,3.5l-7.5,2.7l-2.2,2.2l0.7,3l-1.2,2.2l1.4,2.5
	l-1,0.1l-0.3,4.8l-1.4,4.5l-1.1,0.4l-5,3.9l-0.5,2.2l-1.2-0.8l-1.5,1.1v3.1l-2.2,6.4l-1.8,1.1l-4.8,3.7l-0.5,2.6l-1.5,3l-2.6,0.8
	l-0.4,1.2l-3.7,1.8l-2.7-0.4l-3.5,0.8l-3,1.1l2.9,0.4v2.7l-2.3,2.7l-7.9,3.8l-4.4,4.4l-1.1,3.7l-5.4,1.8l-3.5,2.6l-7.4,0.8l-1.4,2.6
	l0.7,4.4l-1.9,3l-8.3,1.5l-12,2.5l-2.6,1.6H434l-3.9,5.7l-5.4,4.1l-1.1,3.7l1.2,2.2l-0.4-2.5l2-2.5l1.2,1.5l-0.7,1.8l2.5,1l2.3-0.3
	l5.4,2.7l4.6,1.9l2.9,7.4l2.3,4.2l4.4,3.1l0.4,2l-1.6,1.5v3l1.4,0.7l0.3,4.2l-1.6,1.9l-0.1,2.9l-1.1,1.4v1.4l1.4,0.7l0.3,3.1
	l2.3,7.1l0.4,18.8l1.4,2v-4.5l0.7,1.6h2.2l-0.3,3.1l-1.6,0.8l-1.1,3l-0.4,7.9l-2.5,1.2v1.1l1.5,0.1v4.1l-3.1,2.7l-5.6,0.4l-1.6,1.6
	h-6.3l-3.9-1.6h-2.3l-3-3h-1l-0.4-9.3l1.6-0.5l1.4-4.4l-2.7,1.1l1.1-2.3l1.5,0.3v-1.7h3.7v1.4l1.8,0.4l0.3,3l1.4-0.3v-1.8h3.8V812
	h-2.3l-2-2v-2.7l-1.4-0.8h1.8l0.4,1.8h2l1.2,1l0.1-1.4l-2.7-0.7l-0.7-1.8l1.9,0.3l1-1.2l1.8-0.3l0.4-1.8l-1.8,0.1l-1.4-2l-1.5,2.2
	v-3.3l-0.3-1.2l3-0.8l-0.1-1.5l-3.1-0.1l-1,1.5h-4.6l0.8,2.2l-1.2,0.4l-0.3,1.4h-2.5v-1.4h-3.1l-1.1-1.8l0.4-5.7l2.2,0.5l1.6-2.7
	v-1.8l-1.9,2.6l-1.1-1.8l-1.6-0.1l-0.4-1.6h1.5l1.4-2.3l-2.3-0.4v-2.2l-1.8-0.4l-0.4-1.5h2.3l0.5-2.5l-3.9-0.4l-1.8,1.9v-0.1
	l-1.4-2.3l-1.1,0.1l-1.5,2.2l-1.1,4.6l-4.5,2.6l-1.1,5.3l-5.7,5.4v6l3.7,5.3l0.5,6.3l-1.8,1l-0.5,7.1l-9.7,11.6l-0.8,5.3l3.9,2.9
	l0.5,18.9l9.9,10.8v3.9l3.7,10.2l4.2,1.1l0.3,8.2l7.6,9.4v12.8l1.8,1.4l9.7,16.7l6.8,2.3l1.6,2.6l2.6,0.5l1.4-5l2.9-1.1l0.5-6.5
	l-3.1-2.3l-0.8-6.8l7.1-0.5l4.5,5.7l5.7,2l4.2-9.1l3.9,0.5l1.8,3.1l15.8,10.5l8.4,3.1l7.6,0.3L507.8,932.5z"/>
<path class="state" id="amazonas" d="M869.4,1498.4l-1.1,9.7l5.2,7.4l3.8,1.4l1.6,6.8l2.2,1.9l-0.3,9.4l-1.1,1.6l1.2,8.6l0.4,12l-0.4,4.9l-1.6,3
	l-4.4,1.1l-1.1,6.3l2.7,3l3.5,8.6l-0.3,6.5l3.3,6.8v7.1l6,13.5l3.3,2.7v10.8l5.4,6.3l0.5,4.1l-4.4,3.5l-2.5,12.7l-0.3,9.4l1.9,1.4
	l0.3,3l-6.4,1.9l-4.9,0.8l-10.9-6.3l-0.4-7.8L859,1656l1.8-12.1l0.4-14.3l-7.6-4.4l-7.9-6l-22.2-2.6l-8.3,0.8l-4.9-5.4l-1.5-11.7
	l-9.1-6.1l-10.5,0.1l-5.4,8.3l-5.6,10.9l-1.8,25.7l-8.3,14.8l-13.2,2.5l-7.4,5l-11.4,17.3l-8.3,6.8l-7.6,6l-5.9,12.4l-4.5,3.8
	l-12.3,1.4l-3.3,8.6l3.8,3.3l-4.1,8.8l-16.6,2.3l-6.8,5.9l-0.5,15.1l-5.3,1.5l-9.5,16.3l-1.2,6.5l-2.7,2l-5.9,0.5l-12.1-7.1
	l-0.3-4.8h-9.5l-4.8-4.5l-4.8,1.5l-4.2,10.1l-2,2.7l-0.5,3.3l5.3,4.6l4.8,0.5l-2.3,4.5l-5.3-2l-4.6,2.7l-1.2-3l-5.9,1.5l1,5.9
	l3.8,3.3v9.8l-2.7-2.7l-3.8-1.2l-1.5-5H593l-2.7,5.6l-3.5,0.3l-0.5,3.3l-3.5-1.2l-0.3-1.5l-6.5-2l-1.5-5l-3.3,1v8.8l3.5,1.8v4.5
	h-4.8l-2.3,5.3l-8,5.3l-11.6,0.3l0.3-1.5h-4.8l-1.5,2.3l-6.5-0.3l-16.9,6.3l-16.3,11.3l-3.8,0.3l-3.3,2l-4.1-0.5l-8.3,4.6l-3.8,3.3
	l-2.3-1l-1.5-2.7l-3.3-1.8l-3.5,1l-1.5,4.8l-4.5-1.2l-1.2-3.5l-3.8,3l-0.3,6.5l2,8.3l-7.4,5l-4.6,8.2l-1.8,0.5l-6.3,9.4l-7.8,5
	l-4.5-2.3l-7.1,7.8l-1.8,6.3l-16.6,9.1l-6.5-1l-6.5,2.7l-5.9,5.6l-1.2,7.1l-8.6,6.3l-3.5,1.2l-1.6,2.9l4.2,1.1l2.7,1l3.9-0.8l4.2-1
	l0.7-0.3l1-1l0.4-0.4l4.9-0.1l3.5,0.3l1.1,0.5l1.5,2.3l1.2,1.9l1.2,2.3l1.5,1.5l0.3,1l-0.7,2l0.7,1.2l3.4,0.7h0.8l2.6,1.8l2.5-1
	l0.8-0.3l3.5,1.9l4.4,0.1l3.4,1l1.9,1.1l2.9,0.8h2.5l2.5,0.1l0.8,0.3l2.5,0.3l1.4,0.1l1.5-1.8l0.7-0.1l0.3,0.1l1.5-1.1l1.8-0.4
	l1.2,0.4l1.1,0.5l0.1,0.8l4.6-0.4l0.3-0.7l-0.3-0.5l-1-1l0.3-0.7l4.4-1.6l0.8,0.1l4.1,0.7l2.9,0.7l0.8,0.1l1.6,2.2l0.3,0.3h0.4
	l1.5-1.1l2.5,1l0.8,1.6l0.3,0.3l1.9,1.1l1.8,1.1l5.7-3.3l1.4-0.3l0.7-0.1h0.8l1.6,0.1l3.3,1.4h0.5l3.1-0.5l4.2-0.3l1.4-1.4l0.7,0.3
	l1.2,2l3.4-0.3l0.8-0.8l-0.4-22.2l2.3,0.7l1.1-1.5l3-0.4l1.1,1.8l3,0.1l0.3-4.8l3-2.9l4.4,1.1l-0.4,2l3.8,3.3l2-1.6l-0.3-1.6l3-0.3
	v4.5l2,1.1l0.8-2.5l2,1.5l-0.1,1.5l3.3,0.1v-1.9l2.2-2l0.8,2h2.6l3.4,4.6l-1.6,1l0.1,2.9l2.6-0.1l0.7-2.2l5-1.2l0.3,2.2l2.5,3.1
	l3.8-0.3l3.9,4.8l-0.3,1.6l-1.8,1.1v1.1l3.4,1.2l1.4,2.7l4.1,3.8l0.7,4.2l5.2,5.4l5.6,1.6l1.2,1.8l3-0.1l5.7,7.9l8.3,1.8l1.6,2
	l3.5,0.1l1.4-1.8l10.3,0.7l-0.1-2.3l2.5-1.6l1.5,0.7l-0.1,2.5l7.1,7.2l3.5-0.5l3,1.8l1.9,3.3l7.1,1.9l3.5,3l1.5,2.3l4.1,2.7l1.4-0.1
	l0.8-1.9l4.6-0.3l2.2,3l2.5,0.1l2-0.5l1.6,0.3l0.8,1.6l5.4-0.1l0.5-2.3l2.5-1.6l1.5-5.2l3.4-2.5l4.5,0.4l1.4,2.6l4.2,1.9l5.2,0.1
	l0.8,1.1l3.1,0.3l1.2,1.9v3l3.3,0.3l3.8,4.1l4.6,0.3l1.5,4.4l2.3-0.1l1.2,1l0.4,3l1.6,1.8h1.1l0.3-1.8l3.1-0.3l1.6,4.1l1.1,0.1
	l1.2,1.9l3.4-0.3l0.3-3.3l3.5-2.3l0.7-3l2.3-1.2l1.5,3.3l3.3,1.2l2.3,3.5l0.4,3.5l1.9,1.6l-0.3,4.6l3.8,2.5v2l-2,1.5l0.3,2l2.2,1
	l0.3,1.4l1.6,0.3l1.1-3l3.4-1.6l0.7,2.6l-2,1.5l-0.3,1.2l2.5,1.2l0.7,1.4l2.2-0.1l0.4-2.5l2.6-1.1l3.1,0.1v1.8l-1.8,1.2l0.3,1.2h3.5
	l4.4,2.7l0.4,3.3l3.3,2.7l0.4,4.1l1.6,1l1.2-2.3l1.8-0.7l0.4,4.8l1.6,0.7v-1.9l2.2-0.7l1.1,3.3l6-0.7l0.5,3.8l-1.9,1.2l0.1,2.9
	l1.6,1.2l0.1,1.2l1.1,0.1l1.6-3.1h1.4l1,1.9l0.3,3.1l-1.8,0.3l0.3,2.6l4.6,2.3v3.3l-2.2,0.5l0.1,3.3l2.6,3.8l3.1,0.4l-0.3,3l-2,1.2
	l-3-0.3l-1.4,3l4.4,4.4h5.4v2.5l-1.6,1.2l1,1.8h2.2l1.8-2.7l2.5,1.9l-1.9,0.7l-0.1,1.4l-1.2,1.5l1.4,3.7l2.5-0.8l1.8-2.5l2.2,1.2
	l-0.7,3l-2.9,1v2.9l1.6,1.5l-2.2,1.2l-2.9-2.5l-2.9,0.1l-2,2.3l1.4,1.9h3.7l3.5,3.3l-0.3,5.7l-1.8,1.1l1.1,3l3,0.1l3.7,5.2l3.9-0.1
	l1.8-1.9h3.7l1.4,2.9l3.8,0.5l4.8,4.9l4.9-0.3l2.5-3.3l-1.6-3l3.5-3h1.1l-0.4,2.9l1.5,2l-2.9,4.4l2.3,4.1l2,1.6l1.2,2.7h1.1l2.2-2.9
	l-1.6-1.6l3-2l3,1.9v1.9l-2.5,1.1l-0.1,2.7l2,1.2l3-1.9v-1.1l2.2-0.3l3.4,2.2v4.8l2.2,1.2l1.5,4.9l-0.3,3.5h6l1.9,3.3l2.5-0.1
	l1.1-1.4h0.8l1.8,3.3l2.5-0.4l2.5-6.7l-1-3.3l2.9,3.5l0.7,5.9h3.5l2.5-2.2v-1.6h1.6l2.3,6.1h3.5l1.8-2.5l1.6,0.4l-1.2,6.4l2.6,1.2
	l0.7,4.1h1.4l2-3.5h1.1l-0.1,7.2l-1.8,1.2l1.8,1.6l1.2-0.7l2.9,2.9l-1.1,2.5l-2,0.3l-1.6-0.8l-1.9,1.8l1.5,1.8l6.4-0.3l1.8,5.2
	l-1.8,1.6l3.1,2l2-1.8h1.9l1.1,2.7l-2.5,2.2l0.7,1l2.5,0.4l-0.1,4.4h-2.7l-0.1,2.7l1.4,0.8v1.4h1.5l1.8-2l1.1,0.1v3.3l-3,1.4
	l-3.9,5.2l-1.8,0.1l0.1,1.4l1.8,1v2l-2.9,3.8l-1.2,0.4l-0.1,1.9l5.2,4.8h7.2l3.3,3.8l-0.4,3l2.5,1.9l2.7-1.6l0.1-1.8h2l2,2.9
	l2.6-1.2l2.5,3.3l2.5,1.5l0.4,2.6l2.7-1v-3l-1.8-0.3l0.3-3l1.9-1.4l3.1-0.1l3.3,1.6l-0.8,3.3l2.5,0.1l2.2-1.9v-3.7l-1.6-1.1l2.3-2.6
	l4.4,5.2l0.1,3.8h2.2l2.2-1.9l2.9,1.6l-0.1,4.1l-1.2,0.8v3.7l2.3,1.8l1.8-1.1l2.9,3.7l-0.4,2l-1.9,0.8v1.4l2.2,1.1v5.2l-1.6,2.7
	l-1.9-0.5l-0.4,2.3l2.5,4.2h2.6l1.9,2.5l-1.9,2.5h-1.6l-0.3,2.2l2.7,2.5l4.1-0.4l-0.4,4.8l-2.5-0.3l-4.4,3.7l-0.8,6.9h-3.4l-4.4,2.2
	l0.1,2l1,0.4l0.1,5.7l3,1l5.9,5.7l-1.8,2.7h-1.8v1.5l2.5,1.9l5.7-1.8l0.7-2.9l1.8,4.4l-1.4,2.5l2,2.7l2.2-1.9v-6.5h2.2l2.5,7.1h1.8
	l2.5-2.7l4.1-1.1l0.1,2.7l-2.2,1.8l1.2,3.8l5.2,3l0.1,2.5l-2,1.6l-0.1,2.9l1.2,1.2l4.8-4.8l6.9-0.1l10.5-6.4l-1-1.9l1.1-1.2l3.5,3.7
	v4.1l3.3-0.8l0.3-3.9l-1.5-1.4l3.7-1.6l3.7,3.1v4.8l-1.9,1l1.9,1.8l3.5-0.4l1-4.8l3.9-2.9v-4.9l2-0.3l1.2-1.6l5.6,7.6l9.9-0.7
	l0.8,3.8l1.2,0.3l2.7-4.6h3.7l2.5,2.9h1.4l2.6-3.8h2l1.2,3.1l1.2,0.1l2,5.4l-0.7,2.5h2.2l1.8-1.6l8-1.1l-0.1-3.4h1.2l2.7,2.7
	l-0.7,2.5l2.9-0.1l0.8-1.9l-2.2-3.3l1.8-3.1l4.4,0.7l-1.6,1.8l1.1,1.1l5.7-1.4l0.7-3.1l1.8,1.1v6.1l2.2,0.5l3-2.9l-0.1-3l-2-1.2
	l0.5-2.2l7.9-5.2l4.8-6.4l2.7-0.4l3.9,5.2l4.4,0.4l3.8-3l2,1.1l1.1,3.7l2.9-0.7l-0.3-3l-3.1-3.1l1-3.8h1.4l1.8-1.6l1.6,1.6l3.3-0.7
	l1.4-6.4l3.1-5.6l1.6-6.1h1.6l1.5,3l1.4-0.1l0.8-2.9l3.9-1.9l1.8-3.7l3.7-1.9l2.7,2.5l-1.6,4.9l-1.8,1l1.2,4.8l2,0.1l6.8-4.5
	l3.1-0.3l1.6,2.5l4.4,1.2l5.6,2.9l6.8-0.3l2.7,2.9l-0.8,6.4l-2,1.6l-0.1,1.2l2.6,1.6l1.5,3.7l2.9-0.7l0.3-2.2l-1.6-1.6l-0.7-6.9
	l1.9-1.9h2.7l4.8,8.3l5.3,2v5l-1.4,0.7v3.8l1.9,1l3.9-2.7l-0.3-1.9l0.4-0.8l1.8,2.5l4.8-1.2l1.8-3.8l2.6-2.9l1.6,1l-0.1,4.4
	l-1.8,1.9l0.4,1.6l2.6-0.3l4.4-7.1h2.3l0.5,1.9l3.3,3l3.8-1l0.4,0.7l-2,2.2l0.3,2.9l1.8,0.8l2.5-1.4l2.6-0.1l4.2-3.9l-0.1-3.8l-3-2
	l-0.1-2.5l-2-1.4l0.4-1.9l3-1.4l2.2-2.6l8.4-1l6.4,6.4l2.6-2.9l-1-3.7l-4.4-4.1l1.6-3l5.2-0.4l2.6,5.4l3.5,0.4l4.6-4.4l5.2-0.3
	l3.7,3.8l-0.7,3.8l3.7,3.9l3,0.3l1.9-2.2h1.8l4.8,7.5h4.9l1.8,1.8l3.1-0.7l2.7,2.6l-1,2.9l-2.9,0.8l0.3,2.7l2,1.2l4.4-0.3l0.7-2.7
	h1.1l0.3,6l-2.2,1l0.1,3.5l4.8,3.8h2.5l1.6-1.1l3.7-1l0.7-2.2l-1.9-2.6l-4.8-2l-0.4-1l4.4-0.7l4.1,1.6l3.1,6.8l3.5,0.8l1.8-3.7
	l2.2-0.1l2,3.5l-0.8,5.4l2,1.9l3.4,0.1l3.5-2.3l1.2-2.6l3-1l2.5,2.2l1.9,0.4l2.7-1.6l3.9,3.1l-1.8,2.6h-4.4l-4.4,2.5l1.2,3.4
	l5.6,0.7l6.9-5.7l5.2,4.4l-0.1,8.4l1.6,1.8l-1.1,1.4l2.5,1.6l2.9-1.2l-0.1-1.2l2.5-2.2l3.3,2.9l-1.4,1.2l-0.1,2.9l-1.5,1.9l2.5,2
	l0.3,1.9l3.8-1l2.2-4.6l2.5-2.2l0.5-3.1l4.4,3.8l-1.5,2.5l1.6,0.7l-0.5,2.6l-1.6,0.5l-0.1,2.7l2.2,1.5l-93.5,152.1l3.4-1.1l2.5,1.1
	l3.5,5.7l1.9,0.3l0.3,2.2l2.6-0.1l0.7-2l0.4,1.1l0.3,3.5l1.8,0.1l2,1.8l3,0.1l0.8-2.9l0.8-0.3l2.3,0.1l0.5,1l10.6,0.5l1.1,1.8
	l2.6,1.8h5.3l0.7,2.3l2.5-0.1v-5.9h1.5l3.8-4.1l6.3,0.8l2.3-2l1.8,0.3l-0.1,1.9l2.6,0.7l2.5,3.4l3.5,1.9l0.8,2.3l1.9,1.2l1-0.4
	l1.1,0.8l2.7,3.9l0.8,3.1l5,6.4l2.6,0.7l4.9,5.3l0.5,2.5l2.5,1.4l0.3,3l4.4,4.6l-0.3,1.1l-0.8,2.2l1.9,1.5l0.4,3l1.6,1.4l2-1.8
	l1.2,1.4l3.8,4.4l72.8-394.8l-1-0.7l-1.6-4.4l3.3-2.5l0.8-11.8l1.8-2.2l2.2-0.3l0.8-3.5l-1.6-1.2l-0.1-9.4l-2.5-2l0.1-2.7l-1.4-1.1
	l-0.3-2.6l2.5-0.5l0.4-7.2l2.6-3.1l1.1-0.3l0.5-1.5l-3.5-4.4l-1.8-0.8l-0.4-1.9l1.5-2.6l-1.8-1.5v-2.3l-2.2-0.4l-0.4-1.4l2.6-1.4
	l0.5-1.5l-2.6-2l-2.9,0.8l-3-5.9l-3.4-0.3l-3.9-5.4l-0.3-1.8l1.9-0.7l0.4-2l-1.9-1v-1.8l-4.4-3l0.1-3.4l-4.2-3.4l-3.4-6.3l-2.9-0.4
	l-0.8-1.5l4.4-3.4v-4.1l3.7-3.1v-2l1.8-1.1l-0.3-4.5l-5-3.7l-0.3-1.6l1.9-1.1l-0.1-4.1l-3-2l-0.3-1.6l1.6-1l-1.1-1.5l-1.8-0.5
	l-1.5-3l-5.2-1.2l-7.1-3.5l-8.4-7.6l-7.2-2.9l-2.9-4.4l-9.1-1.2l-4.2-5.3l-3.7-1.5l-6.1-6.7l-1.5-4.1l-1.8-1.6v-2.9l1.5-1.6l0.1-2
	l-2.6-3.4v-98.4l1.5-1.6l3,0.1l1.8-1.8l-1.8-1.4l3.7-1.8l2.3,3.7l2.9-0.1l2.6-3.8l6.8,1.1l3.9-1.6h1.9l1.2,1.9l4.4-0.4l2.2-2.5
	l6.7-2.3l1.6-3.4l4.2-2.9l0.5-1.9l6.1,1.6v1.6l3.3,1.2l-0.1,1.8l1.9,0.3l3.1-3.7l-1.9-1.2l1.9-0.3l2.7-2.9l1.9,0.5l2.7-1.6l3.1-5.3
	l4.1-1.6l1.1-1.6l5.4,2.9v2.5l4.1,4.6l7.8,5.3l-0.7,3.4l1.6,0.1l1.6-1.6l0.3-2.9l1.5-0.4l0.7,2h2l2.5-3.4l1.8,1.1v3.5l-1.1,1
	l0.1,1.5l6.4,0.4l0.5,1.2l2.2-0.1l4.4-4.2l-0.5-2.2l1.8-2.5h3.8l0.8,1.8l2.9-0.1l1.8,1.9l1.8-2.9l-3.5-2.6l-1.2-5.2l-3.8-1.1
	l-0.7-1.8l-2,0.4v-4.2l2.2-2.2l1.5,1l2.3-0.4l0.1-5.7l-1.5-0.4l-0.3-1.9l-1.5-0.1l0.1-3.9l1.6-1.5h2.7v-4.4l-3.4,0.4l-1.8-1.4
	l-0.3-2.2l-2.5-1.8v-1.6l4.1-1.4l-0.1-1.4l-1.9-1.5l-2.6-0.1l-0.7-1.5l-2.3,0.1l0.1-2.7l1.5-0.5v-3l-1.6-1.9l-3.3-1.5l0.1-1.6
	l-1.1-1.4l-5-0.1l-0.5-1.4l-2.2,0.1l-2-1.4l-1.5-3l-1,0.3l-0.8,1.1l-6.4-0.3l-2.6,3.9l-1.9,0.3l-0.3,2l-2.5-1.5l-0.5-3.4l-2.6,0.5
	l-1.4-1.8l-6.5,0.3l-1.8,1.5l-5.4,0.4l-2.7-1.9h-2.6l-1.9-2.9l-3.4-0.1l-1,1.8l-2.9-0.3l-2.9,1.5l-0.1,1.8l-1.4-0.3l-1-1.8h-2.5
	l0.3-1.6l1.5-1.1l-0.7-2.7l-6.1,0.1l-1.1,1.6l-3.1-0.1l-4.4,3.9l0.7,1.6l-1.5,0.8l-1.4-1v-93l7.9-0.3l3-2.7h2.5l1.5-1.4l3.7-0.5
	l1.9,1.8h8.7l3.9-4.4l4.8-1.2l1.6-2.2l3.5-0.1l1.4,1.1l6,1.6l0.8,1.1h3.9l1.5,1.1l5.6,0.4l2.6,3l3.5-0.1l2.2,2.2h174.1l0.1-4.1
	l-2.9-0.8l-0.1-2l-0.8-0.7l-0.4-2.2l-4.1-0.1l-1.5,1.6h-2.6v-3.4l1.5-0.8l0.1-3.9l-6.5-0.4l-0.1-1.8l3-1.9l1.5-2.6l0.1-4.4l3.9-5
	l1.6-4.4l4.2-0.1l6,5.6l3.8,1.1l6.7,7.5l0.4,3.1l9.7,9.8l13.3,6.9l5.6-0.1l1-5.6l1-0.7l0.3-2l-1.9-1.9l0.1-3l-3-2.2l-0.1-1.8
	l3.8-1.4l1.6-3l7.5-3.5l4.8-4.9l1.9-1.6l5.2-1.1l2.7-4.8h6.1l3.7,1.1l6.1-1l5.7-5l2.3-5.2l-0.1-3.1l5.6-6.1l5.6-0.4l2.9-3.8
	l-0.5-3.9l5-2l5.6,2.7l-0.1,6l1.4,3.3l2,1.2l-1.4,2.5l-1.8,0.5l0.4,3.1l5.9,3.8l0.1,1.1l-2,2l0.3,3.8l-3,1.8l1.1,0.4l0.1,3.5
	l2.5,1.2l0.7,2.3l-0.7,3.3l4.2,4.9l0.5,2.7l9.1,6.8l4.2,0.5l0.5-1.4l2.5,0.8l1.1,1h1.9l2.5,4.9l0.5,8.6l-2.3,3.5l1.4,4.5l5.4,4.1
	l0.4,1.9l-1.1,2.2l1.1,1.1l-0.3,6.3l-2.2,1.9l2.2,1.4l0.8,3.3l8.6,6l0.8,2.5l-1.9,2.5l0.3,3.9l1.5,1.4l0.3,2.5l-1.9,0.7l-1.6,1.8
	l-2.6,0.4l-1.9,5l1.4,5.9l2.6,2.5l1.9,7.6l2.6,2.2v1.8l-1,2.6l1.9,2.7l-0.8,2.5l27.6-7.5l0.1-3.3l-1.6-1.6l-0.1-9.3l2-3.4v-1.2
	l1.4-1.2v-1.6l-1.2-0.8l-0.7-4.6l-6.3-5.2l-1.5-3l0.1-3l1.6-1.5l-0.4-4.6l-3.3-1.9l-1.9-7.1l-2.2-1.5l-0.3-2.2l-1.9-0.5l-0.7-1.5
	l2.5-2l-0.5-1.9l-2.5-1.9l-0.8-5.2l-1.8-1.2l-2.3-9.9l-3.1-3.7l-0.3-4.4l-1.6-1.5v-1.5l1.2-0.8l0.4-1.6l-4.2-5.2l-1-5.9l-5-7.6
	l-3.5-1.5l-0.4-1.5l2.5-1.8l1.1-6.4l1.5-1.1v-4.4l-2.2-1v-6l-2.2-1.9l-1.5,0.1l-1.5,1.8h-2.3l-2.3-6l-2.7-1.1l-1-7.5l-1.6-2.7
	l-1.5-0.1l-0.3-3l1.6-1.1l0.3-2.6l-2.2-1.9l0.3-1.1l1.9,0.1l3.3-3.5l-0.1-4.1l-5.2-3.5l-5.3-6.9l-4.6-0.4l-5.2-8.2l-1.4-5l-7.2-5
	l-2.5-4.1l-3.3-1.2l-8.8-10.9l-2.3-0.4l-0.8-1.1h-3l-2.3,2.5h-1.9l-1-4.1l2-1.8l0.3-3.4l-3.1-3l-2-5.2l0.3-2.5l-2.9-3.5l-2.7-0.3
	l-2.5,2.6h-6.3l-6.9-2.6l-1.5-3.3l-2.5,0.1l-1.5,1.8l-7.4-0.3l-3.1,2.5l0.1-6.4l62.3-58.5l5.6-1.2l-0.5-4.6l2-2.6l3.5-1.5l2.5-2.9
	l0.1-4.2l2.6-1.8l0.1-3.8l-3.1-3l-1.5-4.4l-4.2-2.5l-4.4-0.4l-1.9-3.1l0.1-5.9l-3.1-4.4l-0.1-2.7l-2.5-1.2l-0.7-2.6l1.8-1.5l0.3-4.4
	l-2-1.4l-0.1-3.5l-5.6-6l-0.5-6.1l-2.3-1.5l-0.4-1.9l-2.6,0.4l-1.1,3.3l-3.7,0.5l-1.1,1.8l-1.8,0.4l-1.2-2l-3.3-0.1l-4.4-6.9h-1.4
	l-0.1-3.5l1.2-0.7l0.8-2.6l-1.2-0.8l-2-4.8l-3.1-2.7l-0.8-5.2l-2.5-3.7l-0.1-1.6l1.1-1.1l0.3-7.2l-2.5-1.1v-3.4l-1.6-1.2l-1.1-8
	l-8.4-8.2l-0.7-6l-1.5-1.8l0.3-6.4l1.9-9.3l2-1.2l-0.5-8.2l-3.3,0.5l-13.7,14l-3,12.9l-7.9,11.6l-5.7,0.5l-3.5,1.6l-7.9-1.9l-10.8-6
	l-45.9,0.3l-30.2,6.8l-15.4,8.2l-11,1.6l-6.8,5.2l-3.5-0.3l-0.5-5.7l2.7-1.1l16.2-15.4l6.3-3.3l8.8-12.9l3.5-12.9l5.2-1.9l9.9-14.6
	l3-2.2v-6l-8.6-4.6l-7.6,0.8l-3.5,8.6l-4.4,10.6l-13.7,8.8l-11.8,4.4l-7.8,5l-14.2,7.1l-20,0.3l-24.1-6.8h-25.5l-28,7.9l-9.1,1
	l-20.6,11.6l-10.2,12.1l-10.8,16.2l-3,1.6l-6.8,6.8l-11.8,18.9l-1.6,7.4l-4.6,7.1l-8.6,10.8l-1.9,8.6l-13.5,19.7l-21.9,23.6
	l-12.7,7.6l-20.8,5.7l-17.6,7.9l-13.5,9.7l-12.1-0.3l-4.6,3.3l-14.6,0.5l-9.7-6l-7.4,0.8l-1.4,1.9l-15.9,0.5l-20.8,6.8l-21.6-0.8
	l-11.3-3.5l-9.9-1.1l-5.2-3.3h-12.7l-8.8,3.5h-13.5l-25.6,12.1l-2.2,4.6l-10.5,0.5l-13.5-2.3l-0.8-5.7l1.9-8.3h2.5v-3l-1.4-2.5
	l-9.4-0.8l-7.1,6.3l-7.1,17.3l-11,18.2l-17,9.9l-18.4,0.3l-16.5-1.1l-13.6-5.7l-3.3-3.3l-12.5-2.3l-6.5-5.7l-7.6-1.9l-4.6-12.4
	l-1-13.1l-7.6-13.1l-17.7-15.9l-2.9-9.8l-22.9-18.8l-12.4-5.7l-13.3,3.7l-6.4,8.6L869.4,1498.4z"/>
<path id="path3781" d="M413.8,1514.7l1.9,1.1l-1.8,0.3l-2.3,2.6l-1-0.5l0.7-2.5L413.8,1514.7z"/>
<g id="insular" class="state">
	<path id="path3475" d="M354.3,388.7h-1l-0.6-1l0.8-0.4l0.9,0.3l0.2,0.6L354.3,388.7L354.3,388.7z M464.7,329.9l-0.2,2.9l-2.3,1.4
		l0.1,1.6l3,1.5l0.1,2.5l-0.9,0.5l-0.8,3.2l-1.2,0.9l0.4,2.1l1.2,1.1l-0.1,2.8l-0.7,0.9l1,0.8l1.7,4.4l-0.3,2.6l1.2,0.3l-0.6,1.7
		l-0.6,0.2l-1.6,3l-0.8,4.6l-2.2,3.8l-1,0.3l-2.3,5.2l-1.9,2.3l-0.2,2.7l-1.3,1.1l-0.2,3.1l-1.1,1l-2.8,0.1l-0.8,1.1l-3-0.1
		l-0.3,1.3l-1-0.1l-0.6-0.7l-4.5,0.1l-2.4,2.3l-5.7,0.1l-2.6,1.7l-1.7,0.2l-1.3,2.2l-1.7,1.7l-0.3,2.6l-3,0.5l-4.5,3.3l1,0.5
		l-0.5,1.5l-2.3,0.5l-0.2,2.1l-3.1,4.4l-2.1,0.1l-3.6,3.4L404,418l-1.9,0.2l-0.3,0.9l-2.4-0.1l-1.2-1l-0.5-0.7h-5.4v-0.6l-0.3,0.1
		l-1.5,2.1l-6,1.7l-4.3,3l-0.8,2.1l-2.8,1.9h-1.3l-5.2-1l-5.2-1.9l0.1-0.3l0.8-0.3l-0.1-0.3l0.8-0.6l-0.1-2.4l-1.9-1.8v-1.7
		l-1.7-1.2l-0.4-1.9l-2.5-2.3l0.3-2.2l1.7-1.9l-0.4-2.9l-1.1-0.4l0.2-0.6l0.5-0.1l-0.2-1.2l2.6-0.6l0.8-1.2l-0.2-4.3l-0.6-0.6
		l0.1-1.7l-1.2-1.5l0.1-1.3l-0.6-0.6l-2.3-6.2l-0.8-0.4l0.2-1.7l1.2-1.1l-0.1-0.3l-1.2-0.3l-0.1-1l-2-1.2l-3.8-1l-3.4-1.5l-0.9-2.3
		l0.9-1.5l1-0.3l1.2-1l-0.2-0.9l-1.3-0.4l0.2-1.2l1.1-1l-0.2-1.8l1.3-1.1l-0.3-2.3l-0.5-0.2l0.2-0.4l2.1-0.1l0.8-0.6l-0.1-1.3l1-0.8
		l0.8-2.1l-0.2-1.5l-1.2-0.5l0.1-0.5l1.6-1.6l0.6-2.5l0.2-3.3l1.3-1.2l-0.1-0.9l-0.5-0.2l-1-3.3l0.1-1.9l-1.1-0.8l-0.2-2.3l1.1-0.7
		l-0.2-1.7l-1.2-0.2l0.1-0.5l0.7-0.2l0.1-1.5l1.1-0.8l-0.7-1.7l1.2-0.7l-0.3-0.7l-0.7-0.3l0.2-1.8l2.2-3l0.2-2.3l1.3-1.7l-1-0.4
		v-0.6l2.2-1.6l1.1-1.8l1.3-1.8l0.6-3.4l3.4-3.8l0.2-2.9l2.6-4.9l0.1-0.9l-1-0.8l-0.1-0.4l2.5-1h1.8l0.9-1.6l0.9-0.3l3.6-4.9v-1.6
		l6-3.5l2.5-0.6l1.1-2.1h1.9l1.5,2.1l1.8-0.1l1.2-1.3l1.2-0.1v1.2l3.9,4.9l2,0.2l1.2-1.9l0.4,0.9l1.1,0.1l1,1.2l1.7,0.1l0.6-0.6
		l4.3-0.1l5.2-4.2l0.3-1.8l1.2-0.8l0.4-1.5l2.9-3.1l0.9-5.3l-1.1-5.1l-0.4-0.3l-0.2-1.3l1-0.5l0.5-4.9l1.1-1.2l-2-1.6l1.1-0.6
		l1.6-2.6l3.1-1.2l4.4-0.5l0.4-2.2l-1-0.6v-0.6l1.2-1.3l0.2-1.5l-1.3-0.9l-0.2-1l-0.9-0.2v-0.5h2.3l1,0.8l0.8-0.6l3.9,0.1l1,1.4
		l0.2,2.9l1.1,1.6l2.3,1.5l0.4,1.7l0.8,0.3l-0.5,1.1l0.2,1.3l-0.1,3.3l1.1,3l1.8,0.7l0.5,1.1l3.3,0.5l0.4,0.5h1.5l0.5-1.4l0.6,0.8
		l1.4-0.1l0.6,0.8l1.2-0.6h2l4.3,1l2.7,2l0.4,1.3l0.4,3.3l-1.3,3.4l-1.5,2.2l-0.5,1.7l-1.8,0.7l-2,2.4l-1.4,0.3l-0.5,1.4l-2.3,2
		l0.3,2.3l0.3-0.9h1.6l0.8-0.8l-0.1,0.8l1.4,0.9v0.8l-0.8,0.5l0.2,1.5l-0.9,0.8l-2.6,0.1l0.1,0.6l0.6,0.2l0.8,2.3l0.6-1.1l0.9,0.1
		l0.4-0.5l0.8,1.1l0.1,1.4l1.9,2.9l0.5,2.1l1,1.1h0.8l0.6,0.9l-1.1,0.2l-1,0.8v1.7l1.7,0.2l1.4,1.3l0.3,2.7l1.1,1.1l-0.2,0.6l1.9,1
		l-0.1,1.4l-1,1.3l-6.6,0.3l-1.9,1.2l-0.1,1.4l1.4,0.9l0.2-0.7l2.7-1.4l0.4-0.5l2-0.2l0.2-0.5h1.1l0.6,0.6l3.8,0.2l4.3-2.6l1.4-0.2
		l1-0.8l0.2-1.4h0.8l0.2,0.5l0.8,0.2l1.5,1.8l-0.1,0.8l0.5,0.5l0.5,3.5l-1.6,5.2l-1,0.8l-0.2,2.6l-2.4,1.2h-1.2l-0.5-1.3l-0.4,0.1
		l-0.6,1.4l-2.3,1.4l-2.3,0.3l-1.3,1.5l-2.9,0.2l-0.7,1l-1.4,0.2L464.7,329.9L464.7,329.9z M488.9,323.4l-0.6-1.6l0.2-0.8l0.9-0.5
		l1.1,0.6l3-0.8l0.2,0.3l-2.6,1.2l-0.1-0.3l-1.6,0.3l0.2,1.2L488.9,323.4L488.9,323.4z M490.8,319l0.3,0.3l0.9-0.3l0.5,0.4l1.6-0.6
		l-1.4-0.7L490.8,319z M494.7,315.9l0.3,1.1l1.2-0.3l0.6,0.3l1.2-0.2l-0.4-0.9l-1.5,0.1l-0.8-0.8h-0.4L494.7,315.9L494.7,315.9z
		 M493.3,264.9l0.3,1.1l1.2,0.8l2.6-0.4l1.4,0.3l0.1-1.2l-0.9-0.6l-0.4-1.3l-1.7-0.7l-1.8,0.6L493.3,264.9z M405.1,252.9l1.6,0.2
		l2.7-2.2l4.4-0.2l1,0.9l2.3-2.4l1-0.1l1.9,1h2.3l0.2-2.6l2.8-3.3l0.1-2.6l1.7-1.2h1.3l2.1-0.8h-1.4l-3.1-1.5l-0.1-0.9l-1.4-0.9
		l-0.6,2.1l-1-2.2l-0.3,0.8l-0.9,0.2l-0.1,0.7l-1.3-0.8v-0.9l1-0.6l0.3-1.8l0.9-1.1l-1-1.5l-0.1-1l-0.9-0.5l-0.2-2.3l0.7-0.9l1-3.5
		l3.8-2.8l0.1-1.3l1.6-1.5l-0.8-1.9l-0.6-0.3l-1.9,2l-0.7,0.1l-2.2-1.4l-0.1-1.2l-1.3,0.5l-2.4,2.6l-2.2,0.3l-0.8-0.8l-4.3,0.8
		l-1.3,1.4h-0.8l-1.3-1.2l-1.7,0.2l-0.3,1l-1.2-1l-1.6,0.6l-0.2,1.3l1.2,0.7l-0.2,1.3l-2.3,0.1l-0.5,1.2h-1.6l-0.8-0.7l-0.5,0.9
		l-1.6,1.7l-0.1,4.3l-2.2,2.9l0.2,2l0.6,0.3l0.6,3.9l-0.2,1l-0.9,0.1l2.2,1.4l0.7,1.6l2.8,1l-0.8,0.1l0.5,2.4l0.9-0.5l0.7,0.7l1.5-1
		l0.1,1.3l1.2,0.3v1.9l2.2,1.4L405.1,252.9L405.1,252.9z"/>
	<path id="path3546" d="M287.9,386l-1.5,0.6l-2.1-0.3l-1-0.8v-1.1l-1.2-1.8V381l1-1.2l1.7-0.7l1.7,0.7v1.6l1.7,1.1l0.4,0.9
		L287.9,386L287.9,386z M245.5,407.3l-0.6,0.5l-0.9-0.7l0.1-1l0.8-0.1l0.4,0.4L245.5,407.3L245.5,407.3z M247.6,411.7l-1.4-1.3
		l0.5-1.5l1.2-0.1l0.6,0.9l-0.3,0.6v1.1L247.6,411.7z M284.2,372.4l-0.7-0.7l0.1-0.6l-0.7-0.8l0.2-0.6l-0.6-1.4l-0.3-1l-2-0.5
		l-1.7-0.9l1-0.9l1.8-0.1l0.7,0.7h0.9l2.8,3.1l-0.2,2.7l0.8,0.8l-0.6,0.5l-0.2,1l-0.9-0.2L284.2,372.4L284.2,372.4z M195.3,537.4
		l-2.3,2.1v2.7l-2,0.8l-1.7,2.1v1.3l-1.3,0.9l1.4,2.7l-0.7,2.8l-3.3,4l0.4,2.9l-4.3,4.4l-0.7,2.5l-2.3,3.6l0.1,3.8l-0.9,1.8
		l-2.1,2.2l-5.5,11.1l-7.8,11.9l-0.7,2.5l-1.3,0.6l0.2,2.4l-4.3,7.4l-4.8,4l-3.5,0.7l-2.3-0.3l-2.5-3.3l-1.7-0.6l-0.4-1.5l-1.5-0.2
		l-4.4-2.2v-1.3l1-0.3l0.5-2l0.5-0.8l-0.8-0.4l-1.4-2.2l-0.3-2.6l-1.1-2.1l-2-1.7l-0.3-2l-1.2-2.2l-1.4-0.7l0.3-0.9l0.7-0.4
		l-0.3-1.6l0.8-1.7l0.7-0.5l-1.5-0.3l-1.5-0.7v-0.4l1.3-0.8l0.2-0.5l-1.4-1.5l-0.2-2.8l1-1.4l0.4-3.4l0.6-0.3v-0.5l-0.9-0.8v-4.4
		l2.1-6.6l4.1-7l1.5-0.8l0.5-1.8l4.5-5l5.9-10.5v-4.3l0.9-0.6l1-4.2l-0.2-1l-0.7-0.5l0.1-0.8l0.9-0.6V525l-0.8-0.3l-0.1-0.9l-1-0.5
		l-1.2-2.8l0.7-10.2l0.9-10.6l-0.8-0.7l0.5-1.4h0.5l-0.1-3.8l1.9-2.2l-0.3-1.1l-0.7-0.7l0.3-1.6l1.4-1.3l0.2-1.9l-1.2-2l0.4-1.8
		l0.7-0.3l0.3-2.4h0.4l1.3-2.1H151l-0.3-1.8h-1.1l-2.3-1.3l0.8-0.4v-1.7l-1.1-2.3l1.1-0.4l1.3,2.4l1.3-0.4l1.6-2.1l1.3-0.4l2.3-1.6
		l-1-1.4l-7.5,1.1l-1.3-1.7l-3-2l-2.4-0.3l-1-1.3l-5.7-2.3l-3.1-3l-0.8-2.6l-1.8-2.1l-0.3-3l2.4-3.8l0.4-3.5l4.5-7.9l0.4-4.4
		l2.7-4.4l0.4-2.7l-1.3-1.3l0.2-2.5l1.4-1.1l-0.3-1.8l2.9-4.7l0.1-1.7l0.8-0.6l-0.2-1.6l-1.1-0.5l0.3-2.3l1.8-1.2l0.6-3.2l3.7-2.5
		l0.8-2.9l0.7-0.5l-2.1-1.1l-3.5-3.5l-1.2-4.2l-0.1-3.1l-1.8-3.8l0.1-2l-1.7-4.3l0.1-3.1l0.9-0.5l2.9-4.6l0.2-3.7l1.4-1.3l0.5-1.8
		l3.5-3.2l1.1-0.5l1.6-2.5l2.3-1.2l1.5-1.5v-0.5l-0.8-0.3l0.1-1.2l1.2-0.6l2.3-3.3l1.1-0.4l1-1.2l5-3.6l0.7-1.7l2.7-4.2h1.2l1.4-0.7
		l0.1-0.9l-0.6-0.2l-0.2-2l-0.4-3.4l0.7-0.5l-0.8-0.3v-0.4l-1-0.9l1-0.6l0.6-2.9l1.5-0.8l0.2-2.1l1.3-0.8l-0.9-0.7l-0.2-0.9
		l-0.8-0.5l0.5-1.5l0.7-0.1l0.5-0.9l-1.3-0.4l0.1-2l-1.2-0.5l-0.2-1.6l0.5-1.3h1.3l1.1-1.1l-0.2-6.4l-1.1-0.8l0.2-1.4l-0.8-0.8
		l0.9-0.3l-0.2-0.8l0.6-0.9l0.7-0.1l1.4-1.1l0.1-1.7l2.9-3.8l0.9-0.4l1.4-1.2l2.6-5.7l2.5-2.4l1.3-0.5l1.7-1.6l3.2-1.3l9.4-8.3
		l0.1-0.8l7.2-9.1l1.5-0.8l6.3-6.8l5.1-3.8l1.4-0.4l1.1-1.3l9.1-3.2l3,0.3l2.4,5.4l4.2,2.2l3.5,3.6l0.8,2.3l3.5,1.4l-2.2-0.2
		l-0.9,0.9l-0.3,2.3l5,6.5l7.9,4.8l1.8,0.2l1.4,0.8l1.5-0.9l1,0.8l5.4,0.8l0.7,1.7l3.8,2l3.5,3l4.3,0.9l1.8,1h1.6l1.2,2.5l1.2,1.5
		l1.4,0.3l0.2,1l0.6,0.2l-0.2,1.5l-1.7,1.2l0.1,1.1l-0.4-0.1h-1.5l-0.1,1l-0.4,0.2l1.4,0.5h-2.8l-0.1-0.4l-1.2-0.1l-0.7-0.7
		l-0.1,1.3l-0.4,0.9H282l-0.4-1.2l-1.6-0.9l-1.1,0.1v0.5l-0.9,0.6l-0.9-1.8h-0.9l-1.3,1.2l-0.1-1l-1.4-0.2l-0.3-1.3l-0.6-0.1
		l-0.7,1.2H270l0.4,0.7l-1.8,0.1l-0.4-0.5l-0.1,0.5h-0.9l-0.5,1.1l-1.4,0.1l-0.3,0.8l-0.5-1.5l-3.9,0.2l-0.3,0.7l-2.9,1.8l-1.6,0.3
		l0.1,1.3l-0.8,0.3l-1.7,0.1l-4.9,5.2l-1.5,0.1l-1.5,1.4l-1.3,0.1l-2.3,2.2l-1.5,0.3l-0.9,2.1l-2.3,1.1v1.8l1.3,0.9l4.9,3l4,4.2
		l0.3,1l0.8,0.7l-0.2,4.7l-2,0.6l-2.7-0.3l-0.8,0.9l0.2,1.3l-0.8,0.6v0.6l0.7,0.7v1.4l-1.2,0.9l-2.6,0.1l0.4-1.1l-3.1-3V322
		l-1.2-0.2l-0.2,0.7l-1.2,0.1l-0.1-0.8l-3.8-1.6l-2.2,0.2l-1.4-0.8v-0.3h0.7l0.3-1.1h0.5l0.5,0.9l2.5,0.6h1.7l1.6-1h1.4l0.3-0.4
		l-2.4-1.9h-1.9l-3.2-1.3l-1.2-2.2l-3.2-1.9l-0.7-1h-0.3l-0.5,1.6l1.6,0.5l0.2,2.8l-1.6,3.9l0.3,2.5l0.5-1.4l2.1-0.2l-0.2,0.7l0.8,1
		l1.6,0.1l0.2,0.4l-0.7,0.3l-0.2,1.2l0.8,0.9l2,0.2l0.8,0.7l-0.6,0.3l-0.1,1.1l1.2,1.2l1.4-0.1l0.5-2.8l1.4-0.5l0.1-0.9l1.1,0.1l1,1
		l0.1,0.9l1,0.2l0.1,0.9l-1.8,0.1l1.5,1.1l1,2.4l0.7-0.8l1-0.1l0.4,0.5l1.7,0.2l0.4-0.8l1,1.8l3.7,0.2l0.5,0.5l-1.9,0.7v0.4l1.4,0.6
		l0.2,1.6l-0.8,0.3l-0.2,1.4l0.7,0.3l-2.3,1.9l-0.6-0.7l-1-0.2l-0.2-1l-0.6,0.9l-2.4,0.9l-0.8,2l-3,0.3l-3.8-1.5H230l-4.5,1
		l-2.4,1.7l0.1,2.1l0.7,0.3l-0.6,0.6v1.3l0.5,0.2l0.3,1.3l0.7,1.1l2.6,0.9l1.7-1.3l1-0.2v0.4l1,1.3l0.6-1.3l0.6,1.2l0.6-0.3l0.4-0.1
		l0.4-0.4l1.5,1.2l-1.5,1.6h0.7l0.3,1.9l0.7,0.5l0.2,3l-1.7,1.1l0.7,0.6l0.1,7.7l1.5,0.9l0.1,0.6l-0.7,0.6l-0.3,2.1l-1.9,2.1
		l0.1,0.9l0.9,0.7l0.1,2.5l-1.5,2.7l0.5,4.9l-0.9,1.3l-0.1,2.1l0.6,0.6l0.5,5.5l2.1,3.6l0.2,2.1l1.3,0.7l0.2,4.6l-1.3,1.9l-3.2,0.5
		l-7.2,2.8l-4.3,4.4l0.1,1.2l1,0.7l0.8,4.2l0.9,0.4l-0.2,1.2l-2,1.7l0.1,0.6l0.6,0.4v5l1,0.7l-1.6,1.1l0.5,3.6h1.8l0.7,1.5l1,0.3
		v0.8l-1.8,1.4h-0.9l-0.2,2.4l1.5,0.6l0.1,1.6l1.8,0.4v0.6l-1,0.2l0.1,2.4L224,450l-0.1,1.3l-2.3,2.1l0.1,3l-1.3,0.7l-1.3,0.1
		l-0.2,1.2l-1.3,2.1v1.2l-1.2,0.6l-1.8,1.6l-0.4,2.7l-3,1l-3,2.7l-2.1,0.1l-2.1,2l-0.1,3.9l-1.5,1.6l-0.3,2.5l-0.8,2.5l1,2.4
		l-0.1,4.3l-1.3,1.2l0.1,1.6l0.7,0.4l0.1,2.3l-1.4,0.7l0.4,5.5l-1.2,2.3l-0.2,2.5l-1,1.6l0.1,6.4l0.7,0.7l0.1,0.7l-1,1.3l0.3,1.9
		l-1.2,3.6l-1.4,2.3l-1.2,3.8l-0.1,2.7l0.4,2L195.3,537.4L195.3,537.4z M268,309l-0.9-0.7l-1-0.2l-0.8-1.3v-1.2l1.4-1l1.7-0.4
		l1.5,0.2l-0.1,1.5l-0.4,1.2l0.1,1L268,309L268,309z M281.6,222.1l-1.4-1.2v-2.2l1.1-2.6l1.9-1.9l1.9-1l0.7-0.7l0.9,0.5l2,0.5
		l0.8,1.2l-0.7,1l-0.3,0.9l-0.4,0.4v1.4l-1,1l0.8,1.4l-1.3,0.5l-0.5-0.5l-0.1,0.5l-0.8,0.8l-1.7-0.8L281.6,222.1L281.6,222.1z"/>
</g>
</svg>
